<?xml version="1.0" encoding="UTF-8" standalone="no"?>
<svg
   height="321.0936mm"
   viewBox="0 0 743.56413 321.0936"
   width="743.56415mm"
   version="1.1"
   id="svg60"
   sodipodi:docname="Boite_PartieElectronique-5mm.svg"
   inkscape:version="1.1 (c68e22c387, 2021-05-23)"
   xmlns:inkscape="http://www.inkscape.org/namespaces/inkscape"
   xmlns:sodipodi="http://sodipodi.sourceforge.net/DTD/sodipodi-0.dtd"
   xmlns="http://www.w3.org/2000/svg"
   xmlns:svg="http://www.w3.org/2000/svg"
   xmlns:rdf="http://www.w3.org/1999/02/22-rdf-syntax-ns#"
   xmlns:cc="http://creativecommons.org/ns#"
   xmlns:dc="http://purl.org/dc/elements/1.1/">
  <defs
     id="defs64" />
  <sodipodi:namedview
     id="namedview62"
     pagecolor="#ffffff"
     bordercolor="#cccccc"
     borderopacity="1"
     inkscape:pageshadow="0"
     inkscape:pageopacity="1"
     inkscape:pagecheckerboard="0"
     inkscape:document-units="mm"
     showgrid="false"
     inkscape:zoom="1.0454842"
     inkscape:cx="2108.5924"
     inkscape:cy="551.41914"
     inkscape:window-width="1920"
     inkscape:window-height="1017"
     inkscape:window-x="-8"
     inkscape:window-y="-8"
     inkscape:window-maximized="1"
     inkscape:current-layer="layer3" />
  <!--
RegularBox - Box with regular polygon as base


For short side walls that don't fit a connecting finger reduce *surroundingspaces* and *finger* in the Finger Joint Settings.

The lids needs to be glued. For the bayonet lid all outside rings attach to the bottom, all inside rings to the top.



Created with Boxes.py (https://festi.info/boxes.py)
Creation date: 2022-02-22 16:12:41
Command line (remove spaces between dashes): boxes RegularBox - -FingerJoint_angle=90.0 - -FingerJoint_style=rectangular - -FingerJoint_surroundingspaces=1 - -FingerJoint_edge_width=1.0 - -FingerJoint_extra_length=0.0 - -FingerJoint_finger=2.0 - -FingerJoint_play=0.0 - -FingerJoint_space=2.0 - -FingerJoint_width=1.0 - -h=40 - -outside=0 - -outside=1 - -radius=185 - -n=6 '- -top=round lid' - -alignment_pins=1.0 - -thickness=5 - -format=svg - -tabs=0.0 - -debug=0 - -labels=0 - -labels=1 - -reference=100 - -burn=0.2
Url: http://www.festi.info/RegularBox?FingerJoint_angle=90.0&FingerJoint_style=rectangular&FingerJoint_surroundingspaces=1&FingerJoint_edge_width=1.0&FingerJoint_extra_length=0.0&FingerJoint_finger=2.0&FingerJoint_play=0.0&FingerJoint_space=2.0&FingerJoint_width=1.0&h=40&outside=0&outside=1&radius=185&n=6&top=round+lid&alignment_pins=1.0&thickness=5&format=svg&tabs=0.0&debug=0&labels=0&labels=1&reference=100&burn=0.2&render=1
SettingsUrl: http://www.festi.info/RegularBox?FingerJoint_angle=90.0&FingerJoint_style=rectangular&FingerJoint_surroundingspaces=1&FingerJoint_edge_width=1.0&FingerJoint_extra_length=0.0&FingerJoint_finger=2.0&FingerJoint_play=0.0&FingerJoint_space=2.0&FingerJoint_width=1.0&h=40&outside=0&outside=1&radius=185&n=6&top=round+lid&alignment_pins=1.0&thickness=5&format=svg&tabs=0.0&debug=0&labels=0&labels=1&reference=100&burn=0.2
-->
  <title
     id="title2">RegularBox</title>
  <metadata
     id="metadata4">
    <rdf:RDF>
      <cc:Work>
        <dc:title>Box - RegularBox</dc:title>
        <dc:date>2022-02-22 16:12:41</dc:date>
        <dc:source>http://www.festi.info/RegularBox?FingerJoint_angle=90.0&amp;FingerJoint_style=rectangular&amp;FingerJoint_surroundingspaces=1&amp;FingerJoint_edge_width=1.0&amp;FingerJoint_extra_length=0.0&amp;FingerJoint_finger=2.0&amp;FingerJoint_play=0.0&amp;FingerJoint_space=2.0&amp;FingerJoint_width=1.0&amp;h=40&amp;outside=0&amp;outside=1&amp;radius=185&amp;n=6&amp;top=round+lid&amp;alignment_pins=1.0&amp;thickness=5&amp;format=svg&amp;tabs=0.0&amp;debug=0&amp;labels=0&amp;labels=1&amp;reference=100&amp;burn=0.2&amp;render=1</dc:source>
        <dc:description>Box with regular polygon as base

For short side walls that don't fit a connecting finger reduce *surroundingspaces* and *finger* in the Finger Joint Settings.

The lids needs to be glued. For the bayonet lid all outside rings attach to the bottom, all inside rings to the top.


Created with Boxes.py (https://festi.info/boxes.py)
Command line: boxes RegularBox --FingerJoint_angle=90.0 --FingerJoint_style=rectangular --FingerJoint_surroundingspaces=1 --FingerJoint_edge_width=1.0 --FingerJoint_extra_length=0.0 --FingerJoint_finger=2.0 --FingerJoint_play=0.0 --FingerJoint_space=2.0 --FingerJoint_width=1.0 --h=40 --outside=0 --outside=1 --radius=185 --n=6 '--top=round lid' --alignment_pins=1.0 --thickness=5 --format=svg --tabs=0.0 --debug=0 --labels=0 --labels=1 --reference=100 --burn=0.2
Url: http://www.festi.info/RegularBox?FingerJoint_angle=90.0&amp;FingerJoint_style=rectangular&amp;FingerJoint_surroundingspaces=1&amp;FingerJoint_edge_width=1.0&amp;FingerJoint_extra_length=0.0&amp;FingerJoint_finger=2.0&amp;FingerJoint_play=0.0&amp;FingerJoint_space=2.0&amp;FingerJoint_width=1.0&amp;h=40&amp;outside=0&amp;outside=1&amp;radius=185&amp;n=6&amp;top=round+lid&amp;alignment_pins=1.0&amp;thickness=5&amp;format=svg&amp;tabs=0.0&amp;debug=0&amp;labels=0&amp;labels=1&amp;reference=100&amp;burn=0.2&amp;render=1
SettingsUrl: http://www.festi.info/RegularBox?FingerJoint_angle=90.0&amp;FingerJoint_style=rectangular&amp;FingerJoint_surroundingspaces=1&amp;FingerJoint_edge_width=1.0&amp;FingerJoint_extra_length=0.0&amp;FingerJoint_finger=2.0&amp;FingerJoint_play=0.0&amp;FingerJoint_space=2.0&amp;FingerJoint_width=1.0&amp;h=40&amp;outside=0&amp;outside=1&amp;radius=185&amp;n=6&amp;top=round+lid&amp;alignment_pins=1.0&amp;thickness=5&amp;format=svg&amp;tabs=0.0&amp;debug=0&amp;labels=0&amp;labels=1&amp;reference=100&amp;burn=0.2
</dc:description>
      </cc:Work>
    </rdf:RDF>
  </metadata>
  <text
     alignment-baseline="hanging"
     font-size="4px"
     style="font-style:normal;font-weight:normal;font-family:sans-serif;fill:#ff0000;stroke:#ff0000;stroke-width:0.264583;stroke-linecap:round;stroke-linejoin:round;stroke-miterlimit:4;stroke-dasharray:none"
     text-anchor="middle"
     id="text20"
     x="558.23206"
     y="158.74728" />
  <circle
     style="fill:#00ff00;fill-rule:evenodd;stroke:#ff0000;stroke-width:0.264583;stroke-linecap:round;stroke-linejoin:round;stroke-miterlimit:4;stroke-dasharray:none"
     id="path277"
     cx="-403.14499"
     cy="-580.56116"
     r="4.8000002"
     transform="rotate(150)" />
  <circle
     style="fill:#00ff00;fill-rule:evenodd;stroke:#ff0000;stroke-width:0.264583;stroke-linecap:round;stroke-linejoin:round;stroke-miterlimit:4;stroke-dasharray:none"
     id="circle472"
     cx="-563.62415"
     cy="302.60321"
     r="4.8000002"
     transform="rotate(-150)" />
  <circle
     style="fill:#00ff00;fill-rule:evenodd;stroke:#ff0000;stroke-width:0.264583;stroke-linecap:round;stroke-linejoin:round;stroke-miterlimit:4;stroke-dasharray:none"
     id="circle476"
     cx="-160.4791"
     cy="395.6644"
     r="4.8000002"
     transform="rotate(-90)" />
  <rect
     style="fill:none;fill-rule:evenodd;stroke:#ff0000;stroke-width:0.1;stroke-linecap:round;stroke-linejoin:round"
     id="rect9589"
     width="12.4"
     height="9.8999996"
     x="570.90161"
     y="106.56207"
     ry="1.0737505" />
  <g
     id="g907"
     transform="translate(-7.0894746,7.7421563)">
    <circle
       style="fill:none;fill-rule:evenodd;stroke:#ff0000;stroke-width:0.1;stroke-linecap:round;stroke-linejoin:round"
       id="path9693"
       cx="575.55969"
       cy="103.76991"
       r="1.6999999" />
    <circle
       style="fill:none;fill-rule:evenodd;stroke:#ff0000;stroke-width:0.1;stroke-linecap:round;stroke-linejoin:round"
       id="circle9775"
       cx="592.82245"
       cy="103.76991"
       r="1.6999999" />
  </g>
  <rect
     style="fill:none;fill-rule:evenodd;stroke:#ff0000;stroke-width:0.264583;stroke-linecap:round;stroke-linejoin:round;stroke-miterlimit:4;stroke-dasharray:none"
     id="rect728"
     width="13"
     height="20.235416"
     x="-117.87978"
     y="506.88596"
     transform="rotate(-90)" />
  <g
     id="p-3"
     style="fill:none;stroke:#ff0000;stroke-linecap:round;stroke-linejoin:round"
     transform="translate(454.36166,42.863884)">
    <text
       alignment-baseline="hanging"
       font-size="4px"
       style="font-style:normal;font-weight:normal;font-family:sans-serif;fill:#ff0000;stroke:#ff0000"
       text-anchor="middle"
       transform="translate(102.6,25.7)"
       id="text25" />
    <path
       d="M 12.987,40.2 H 27.5 c 0.1,0 0,-0.1 0,0 v 4.9 c 0,0.055 0.045,0.1 0.1,0.1 h 10 c 0.055,0 0.1,-0.045 0.1,-0.1 v -4.9 c 0,-0.1 -0.1,0 0,0 h 9.8 c 0.1,0 0,-0.1 0,0 v 4.9 c 0,0.055 0.045,0.1 0.1,0.1 h 10 c 0.055,0 0.1,-0.045 0.1,-0.1 v -4.9 c 0,-0.1 -0.1,0 0,0 h 9.8 c 0.1,0 0,-0.1 0,0 v 4.9 c 0,0.055 0.045,0.1 0.1,0.1 h 10 c 0.055,0 0.1,-0.045 0.1,-0.1 v -4.9 c 0,-0.1 -0.1,0 0,0 h 9.8 c 0.1,0 0,-0.1 0,0 v 4.9 c 0,0.055 0.045,0.1 0.1,0.1 h 10 c 0.055,0 0.1,-0.045 0.1,-0.1 v -4.9 c 0,-0.1 -0.1,0 0,0 h 9.8 c 0.1,0 0,-0.1 0,0 v 4.9 c 0,0.055 0.045,0.1 0.1,0.1 h 10 c 0.055,0 0.1,-0.045 0.1,-0.1 v -4.9 c 0,-0.1 -0.1,0 0,0 h 9.8 c 0.1,0 0,-0.1 0,0 v 4.9 c 0,0.055 0.045,0.1 0.1,0.1 h 10 c 0.055,0 0.1,-0.045 0.1,-0.1 v -4.9 c 0,-0.1 -0.1,0 0,0 h 9.8 c 0.1,0 0,-0.1 0,0 v 4.9 c 0,0.055 0.045,0.1 0.1,0.1 h 10 c 0.055,0 0.1,-0.045 0.1,-0.1 v -4.9 c 0,-0.1 -0.1,0 0,0 h 9.8 c 0.1,0 0,-0.1 0,0 v 4.9 c 0,0.055 0.045,0.1 0.1,0.1 h 10 c 0.055,0 0.1,-0.045 0.1,-0.1 v -4.9 c 0,-0.1 -0.1,0 0,0 h 14.513 2.887 c 0.055,0 0.1,-0.045 0.1,-0.1 v -7.25 c 0,-0.055 -0.045,-0.1 -0.1,-0.1 h -4.23 c -0.1,0 0,0.1 0,0 v -10.3 c 0,-0.1 -0.1,0 0,0 h 4.23 c 0.055,0 0.1,-0.045 0.1,-0.1 V 15.1 c 0,-0.055 -0.045,-0.1 -0.1,-0.1 H 192.213 177.7 c -0.1,0 0,0.1 0,0 v -4.9 c 0,-0.055 -0.045,-0.1 -0.1,-0.1 h -10 c -0.055,0 -0.1,0.045 -0.1,0.1 V 15 c 0,0.1 0.1,0 0,0 h -9.8 c -0.1,0 0,0.1 0,0 v -4.9 c 0,-0.055 -0.045,-0.1 -0.1,-0.1 h -10 c -0.055,0 -0.1,0.045 -0.1,0.1 V 15 c 0,0.1 0.1,0 0,0 h -9.8 c -0.1,0 0,0.1 0,0 v -4.9 c 0,-0.055 -0.045,-0.1 -0.1,-0.1 h -10 c -0.055,0 -0.1,0.045 -0.1,0.1 V 15 c 0,0.1 0.1,0 0,0 h -9.8 c -0.1,0 0,0.1 0,0 v -4.9 c 0,-0.055 -0.045,-0.1 -0.1,-0.1 h -10 c -0.055,0 -0.1,0.045 -0.1,0.1 V 15 c 0,0.1 0.1,0 0,0 h -9.8 c -0.1,0 0,0.1 0,0 V 10.1 C 97.7,10.045 97.655,10 97.6,10 h -10 c -0.055,0 -0.1,0.045 -0.1,0.1 V 15 c 0,0.1 0.1,0 0,0 h -9.8 c -0.1,0 0,0.1 0,0 V 10.1 C 77.7,10.045 77.655,10 77.6,10 h -10 c -0.055,0 -0.1,0.045 -0.1,0.1 V 15 c 0,0.1 0.1,0 0,0 h -9.8 c -0.1,0 0,0.1 0,0 V 10.1 C 57.7,10.045 57.655,10 57.6,10 h -10 c -0.055,0 -0.1,0.045 -0.1,0.1 V 15 c 0,0.1 0.1,0 0,0 h -9.8 c -0.1,0 0,0.1 0,0 V 10.1 C 37.7,10.045 37.655,10 37.6,10 h -10 c -0.055,0 -0.1,0.045 -0.1,0.1 V 15 c 0,0.1 0.1,0 0,0 H 12.987 10.1 C 10.045,15 10,15.045 10,15.1 v 7.25 c 0,0.055 0.045,0.1 0.1,0.1 h 4.23 c 0.1,0 0,-0.1 0,0 v 10.3 c 0,0.1 0.1,0 0,0 H 10.1 c -0.055,0 -0.1,0.045 -0.1,0.1 v 7.25 c 0,0.055 0.045,0.1 0.1,0.1 h 2.887"
       stroke="#000000"
       stroke-width="0.2"
       id="path27"
       style="stroke:#ff0000" />
  </g>
  <g
     id="p-4-4"
     style="fill:none;stroke:#ff0000;stroke-linecap:round;stroke-linejoin:round"
     transform="translate(266.83293,225.40053)">
    <text
       alignment-baseline="hanging"
       font-size="4px"
       style="font-style:normal;font-weight:normal;font-family:sans-serif;fill:#ff0000;stroke:#ff0000"
       text-anchor="middle"
       transform="translate(290.3,25.7)"
       id="text30-8" />
    <path
       d="M 200.687,40.2 H 215.2 c 0.1,0 0,-0.1 0,0 v 4.9 c 0,0.055 0.045,0.1 0.1,0.1 h 10 c 0.055,0 0.1,-0.045 0.1,-0.1 v -4.9 c 0,-0.1 -0.1,0 0,0 h 9.8 c 0.1,0 0,-0.1 0,0 v 4.9 c 0,0.055 0.045,0.1 0.1,0.1 h 10 c 0.055,0 0.1,-0.045 0.1,-0.1 v -4.9 c 0,-0.1 -0.1,0 0,0 h 9.8 c 0.1,0 0,-0.1 0,0 v 4.9 c 0,0.055 0.045,0.1 0.1,0.1 h 10 c 0.055,0 0.1,-0.045 0.1,-0.1 v -4.9 c 0,-0.1 -0.1,0 0,0 h 9.8 c 0.1,0 0,-0.1 0,0 v 4.9 c 0,0.055 0.045,0.1 0.1,0.1 h 10 c 0.055,0 0.1,-0.045 0.1,-0.1 v -4.9 c 0,-0.1 -0.1,0 0,0 h 9.8 c 0.1,0 0,-0.1 0,0 v 4.9 c 0,0.055 0.045,0.1 0.1,0.1 h 10 c 0.055,0 0.1,-0.045 0.1,-0.1 v -4.9 c 0,-0.1 -0.1,0 0,0 h 9.8 c 0.1,0 0,-0.1 0,0 v 4.9 c 0,0.055 0.045,0.1 0.1,0.1 h 10 c 0.055,0 0.1,-0.045 0.1,-0.1 v -4.9 c 0,-0.1 -0.1,0 0,0 h 9.8 c 0.1,0 0,-0.1 0,0 v 4.9 c 0,0.055 0.045,0.1 0.1,0.1 h 10 c 0.055,0 0.1,-0.045 0.1,-0.1 v -4.9 c 0,-0.1 -0.1,0 0,0 h 9.8 c 0.1,0 0,-0.1 0,0 v 4.9 c 0,0.055 0.045,0.1 0.1,0.1 h 10 c 0.055,0 0.1,-0.045 0.1,-0.1 v -4.9 c 0,-0.1 -0.1,0 0,0 h 14.513 -1.443 c 0.055,0 0.1,-0.045 0.1,-0.1 v -7.4 c 0,-0.1 -0.1,0 0,0 h 4.23 c 0.055,0 0.1,-0.045 0.1,-0.1 v -10 c 0,-0.055 -0.045,-0.1 -0.1,-0.1 h -4.23 c -0.1,0 0,0.1 0,0 v -7.4 c 0,-0.055 -0.045,-0.1 -0.1,-0.1 h 1.443 -14.513 c -0.1,0 0,0.1 0,0 v -4.9 c 0,-0.055 -0.045,-0.1 -0.1,-0.1 h -10 c -0.055,0 -0.1,0.045 -0.1,0.1 V 15 c 0,0.1 0.1,0 0,0 h -9.8 c -0.1,0 0,0.1 0,0 v -4.9 c 0,-0.055 -0.045,-0.1 -0.1,-0.1 h -10 c -0.055,0 -0.1,0.045 -0.1,0.1 V 15 c 0,0.1 0.1,0 0,0 h -9.8 c -0.1,0 0,0.1 0,0 v -4.9 c 0,-0.055 -0.045,-0.1 -0.1,-0.1 h -10 c -0.055,0 -0.1,0.045 -0.1,0.1 V 15 c 0,0.1 0.1,0 0,0 h -9.8 c -0.1,0 0,0.1 0,0 v -4.9 c 0,-0.055 -0.045,-0.1 -0.1,-0.1 h -10 c -0.055,0 -0.1,0.045 -0.1,0.1 V 15 c 0,0.1 0.1,0 0,0 h -9.8 c -0.1,0 0,0.1 0,0 v -4.9 c 0,-0.055 -0.045,-0.1 -0.1,-0.1 h -10 c -0.055,0 -0.1,0.045 -0.1,0.1 V 15 c 0,0.1 0.1,0 0,0 h -9.8 c -0.1,0 0,0.1 0,0 v -4.9 c 0,-0.055 -0.045,-0.1 -0.1,-0.1 h -10 c -0.055,0 -0.1,0.045 -0.1,0.1 V 15 c 0,0.1 0.1,0 0,0 h -9.8 c -0.1,0 0,0.1 0,0 v -4.9 c 0,-0.055 -0.045,-0.1 -0.1,-0.1 h -10 c -0.055,0 -0.1,0.045 -0.1,0.1 V 15 c 0,0.1 0.1,0 0,0 h -9.8 c -0.1,0 0,0.1 0,0 v -4.9 c 0,-0.055 -0.045,-0.1 -0.1,-0.1 h -10 c -0.055,0 -0.1,0.045 -0.1,0.1 V 15 c 0,0.1 0.1,0 0,0 h -14.513 1.443 c -0.055,0 -0.1,0.045 -0.1,0.1 v 7.4 c 0,0.1 0.1,0 0,0 h -4.23 c -0.055,0 -0.1,0.045 -0.1,0.1 v 10 c 0,0.055 0.045,0.1 0.1,0.1 h 4.23 c 0.1,0 0,-0.1 0,0 v 7.4 c 0,0.055 0.045,0.1 0.1,0.1 h -1.443"
       stroke="#000000"
       stroke-width="0.2"
       id="path32-3"
       style="stroke:#ff0000" />
  </g>
  <g
     id="p-5-4"
     style="fill:none;stroke:#ff0000;stroke-linecap:round;stroke-linejoin:round"
     transform="translate(79.132926,188.81412)">
    <text
       alignment-baseline="hanging"
       font-size="4px"
       style="font-style:normal;font-weight:normal;font-family:sans-serif;fill:#ff0000;stroke:#ff0000"
       text-anchor="middle"
       transform="translate(478,25.7)"
       id="text35-8" />
    <path
       d="M 388.387,40.2 H 402.9 c 0.1,0 0,-0.1 0,0 v 4.9 c 0,0.055 0.045,0.1 0.1,0.1 h 10 c 0.055,0 0.1,-0.045 0.1,-0.1 v -4.9 c 0,-0.1 -0.1,0 0,0 h 9.8 c 0.1,0 0,-0.1 0,0 v 4.9 c 0,0.055 0.045,0.1 0.1,0.1 h 10 c 0.055,0 0.1,-0.045 0.1,-0.1 v -4.9 c 0,-0.1 -0.1,0 0,0 h 9.8 c 0.1,0 0,-0.1 0,0 v 4.9 c 0,0.055 0.045,0.1 0.1,0.1 h 10 c 0.055,0 0.1,-0.045 0.1,-0.1 v -4.9 c 0,-0.1 -0.1,0 0,0 h 9.8 c 0.1,0 0,-0.1 0,0 v 4.9 c 0,0.055 0.045,0.1 0.1,0.1 h 10 c 0.055,0 0.1,-0.045 0.1,-0.1 v -4.9 c 0,-0.1 -0.1,0 0,0 h 9.8 c 0.1,0 0,-0.1 0,0 v 4.9 c 0,0.055 0.045,0.1 0.1,0.1 h 10 c 0.055,0 0.1,-0.045 0.1,-0.1 v -4.9 c 0,-0.1 -0.1,0 0,0 h 9.8 c 0.1,0 0,-0.1 0,0 v 4.9 c 0,0.055 0.045,0.1 0.1,0.1 h 10 c 0.055,0 0.1,-0.045 0.1,-0.1 v -4.9 c 0,-0.1 -0.1,0 0,0 h 9.8 c 0.1,0 0,-0.1 0,0 v 4.9 c 0,0.055 0.045,0.1 0.1,0.1 h 10 c 0.055,0 0.1,-0.045 0.1,-0.1 v -4.9 c 0,-0.1 -0.1,0 0,0 h 9.8 c 0.1,0 0,-0.1 0,0 v 4.9 c 0,0.055 0.045,0.1 0.1,0.1 h 10 c 0.055,0 0.1,-0.045 0.1,-0.1 v -4.9 c 0,-0.1 -0.1,0 0,0 h 14.513 2.887 c 0.055,0 0.1,-0.045 0.1,-0.1 v -7.25 c 0,-0.055 -0.045,-0.1 -0.1,-0.1 h -4.23 c -0.1,0 0,0.1 0,0 v -10.3 c 0,-0.1 -0.1,0 0,0 h 4.23 c 0.055,0 0.1,-0.045 0.1,-0.1 V 15.1 c 0,-0.055 -0.045,-0.1 -0.1,-0.1 H 567.613 553.1 c -0.1,0 0,0.1 0,0 v -4.9 c 0,-0.055 -0.045,-0.1 -0.1,-0.1 h -10 c -0.055,0 -0.1,0.045 -0.1,0.1 V 15 c 0,0.1 0.1,0 0,0 h -9.8 c -0.1,0 0,0.1 0,0 v -4.9 c 0,-0.055 -0.045,-0.1 -0.1,-0.1 h -10 c -0.055,0 -0.1,0.045 -0.1,0.1 V 15 c 0,0.1 0.1,0 0,0 h -9.8 c -0.1,0 0,0.1 0,0 v -4.9 c 0,-0.055 -0.045,-0.1 -0.1,-0.1 h -10 c -0.055,0 -0.1,0.045 -0.1,0.1 V 15 c 0,0.1 0.1,0 0,0 h -9.8 c -0.1,0 0,0.1 0,0 v -4.9 c 0,-0.055 -0.045,-0.1 -0.1,-0.1 h -10 c -0.055,0 -0.1,0.045 -0.1,0.1 V 15 c 0,0.1 0.1,0 0,0 h -9.8 c -0.1,0 0,0.1 0,0 v -4.9 c 0,-0.055 -0.045,-0.1 -0.1,-0.1 h -10 c -0.055,0 -0.1,0.045 -0.1,0.1 V 15 c 0,0.1 0.1,0 0,0 h -9.8 c -0.1,0 0,0.1 0,0 v -4.9 c 0,-0.055 -0.045,-0.1 -0.1,-0.1 h -10 c -0.055,0 -0.1,0.045 -0.1,0.1 V 15 c 0,0.1 0.1,0 0,0 h -9.8 c -0.1,0 0,0.1 0,0 v -4.9 c 0,-0.055 -0.045,-0.1 -0.1,-0.1 h -10 c -0.055,0 -0.1,0.045 -0.1,0.1 V 15 c 0,0.1 0.1,0 0,0 h -9.8 c -0.1,0 0,0.1 0,0 v -4.9 c 0,-0.055 -0.045,-0.1 -0.1,-0.1 h -10 c -0.055,0 -0.1,0.045 -0.1,0.1 V 15 c 0,0.1 0.1,0 0,0 H 388.387 385.5 c -0.055,0 -0.1,0.045 -0.1,0.1 v 7.25 c 0,0.055 0.045,0.1 0.1,0.1 h 4.23 c 0.1,0 0,-0.1 0,0 v 10.3 c 0,0.1 0.1,0 0,0 h -4.23 c -0.055,0 -0.1,0.045 -0.1,0.1 v 7.25 c 0,0.055 0.045,0.1 0.1,0.1 h 2.887"
       stroke="#000000"
       stroke-width="0.2"
       id="path37-0"
       style="stroke:#ff0000" />
  </g>
  <g
     id="p-6-1"
     style="fill:none;stroke:#ff0000;stroke-linecap:round;stroke-linejoin:round"
     transform="translate(-108.56707,152.22768)">
    <text
       alignment-baseline="hanging"
       font-size="4px"
       style="font-style:normal;font-weight:normal;font-family:sans-serif;fill:#ff0000;stroke:#ff0000"
       text-anchor="middle"
       transform="translate(665.7,25.7)"
       id="text40-5" />
    <path
       d="M 576.087,40.2 H 590.6 c 0.1,0 0,-0.1 0,0 v 4.9 c 0,0.055 0.045,0.1 0.1,0.1 h 10 c 0.055,0 0.1,-0.045 0.1,-0.1 v -4.9 c 0,-0.1 -0.1,0 0,0 h 9.8 c 0.1,0 0,-0.1 0,0 v 4.9 c 0,0.055 0.045,0.1 0.1,0.1 h 10 c 0.055,0 0.1,-0.045 0.1,-0.1 v -4.9 c 0,-0.1 -0.1,0 0,0 h 9.8 c 0.1,0 0,-0.1 0,0 v 4.9 c 0,0.055 0.045,0.1 0.1,0.1 h 10 c 0.055,0 0.1,-0.045 0.1,-0.1 v -4.9 c 0,-0.1 -0.1,0 0,0 h 9.8 c 0.1,0 0,-0.1 0,0 v 4.9 c 0,0.055 0.045,0.1 0.1,0.1 h 10 c 0.055,0 0.1,-0.045 0.1,-0.1 v -4.9 c 0,-0.1 -0.1,0 0,0 h 9.8 c 0.1,0 0,-0.1 0,0 v 4.9 c 0,0.055 0.045,0.1 0.1,0.1 h 10 c 0.055,0 0.1,-0.045 0.1,-0.1 v -4.9 c 0,-0.1 -0.1,0 0,0 h 9.8 c 0.1,0 0,-0.1 0,0 v 4.9 c 0,0.055 0.045,0.1 0.1,0.1 h 10 c 0.055,0 0.1,-0.045 0.1,-0.1 v -4.9 c 0,-0.1 -0.1,0 0,0 h 9.8 c 0.1,0 0,-0.1 0,0 v 4.9 c 0,0.055 0.045,0.1 0.1,0.1 h 10 c 0.055,0 0.1,-0.045 0.1,-0.1 v -4.9 c 0,-0.1 -0.1,0 0,0 h 9.8 c 0.1,0 0,-0.1 0,0 v 4.9 c 0,0.055 0.045,0.1 0.1,0.1 h 10 c 0.055,0 0.1,-0.045 0.1,-0.1 v -4.9 c 0,-0.1 -0.1,0 0,0 h 14.513 -1.443 c 0.055,0 0.1,-0.045 0.1,-0.1 v -7.4 c 0,-0.1 -0.1,0 0,0 h 4.23 c 0.055,0 0.1,-0.045 0.1,-0.1 v -10 c 0,-0.055 -0.045,-0.1 -0.1,-0.1 h -4.23 c -0.1,0 0,0.1 0,0 v -7.4 c 0,-0.055 -0.045,-0.1 -0.1,-0.1 h 1.443 -14.513 c -0.1,0 0,0.1 0,0 v -4.9 c 0,-0.055 -0.045,-0.1 -0.1,-0.1 h -10 c -0.055,0 -0.1,0.045 -0.1,0.1 V 15 c 0,0.1 0.1,0 0,0 h -9.8 c -0.1,0 0,0.1 0,0 v -4.9 c 0,-0.055 -0.045,-0.1 -0.1,-0.1 h -10 c -0.055,0 -0.1,0.045 -0.1,0.1 V 15 c 0,0.1 0.1,0 0,0 h -9.8 c -0.1,0 0,0.1 0,0 v -4.9 c 0,-0.055 -0.045,-0.1 -0.1,-0.1 h -10 c -0.055,0 -0.1,0.045 -0.1,0.1 V 15 c 0,0.1 0.1,0 0,0 h -9.8 c -0.1,0 0,0.1 0,0 v -4.9 c 0,-0.055 -0.045,-0.1 -0.1,-0.1 h -10 c -0.055,0 -0.1,0.045 -0.1,0.1 V 15 c 0,0.1 0.1,0 0,0 h -9.8 c -0.1,0 0,0.1 0,0 v -4.9 c 0,-0.055 -0.045,-0.1 -0.1,-0.1 h -10 c -0.055,0 -0.1,0.045 -0.1,0.1 V 15 c 0,0.1 0.1,0 0,0 h -9.8 c -0.1,0 0,0.1 0,0 v -4.9 c 0,-0.055 -0.045,-0.1 -0.1,-0.1 h -10 c -0.055,0 -0.1,0.045 -0.1,0.1 V 15 c 0,0.1 0.1,0 0,0 h -9.8 c -0.1,0 0,0.1 0,0 v -4.9 c 0,-0.055 -0.045,-0.1 -0.1,-0.1 h -10 c -0.055,0 -0.1,0.045 -0.1,0.1 V 15 c 0,0.1 0.1,0 0,0 h -9.8 c -0.1,0 0,0.1 0,0 v -4.9 c 0,-0.055 -0.045,-0.1 -0.1,-0.1 h -10 c -0.055,0 -0.1,0.045 -0.1,0.1 V 15 c 0,0.1 0.1,0 0,0 h -14.513 1.443 c -0.055,0 -0.1,0.045 -0.1,0.1 v 7.4 c 0,0.1 0.1,0 0,0 h -4.23 c -0.055,0 -0.1,0.045 -0.1,0.1 v 10 c 0,0.055 0.045,0.1 0.1,0.1 h 4.23 c 0.1,0 0,-0.1 0,0 v 7.4 c 0,0.055 0.045,0.1 0.1,0.1 h -1.443"
       stroke="#000000"
       stroke-width="0.2"
       id="path42-2"
       style="stroke:#ff0000" />
  </g>
  <g
     id="p-7-9"
     style="fill:none;stroke:#ff0000;stroke-linecap:round;stroke-linejoin:round"
     transform="translate(-296.39361,115.76782)">
    <text
       alignment-baseline="hanging"
       font-size="4px"
       style="font-style:normal;font-weight:normal;font-family:sans-serif;fill:#ff0000;stroke:#ff0000"
       text-anchor="middle"
       transform="translate(853.4,25.7)"
       id="text45-9" />
    <path
       d="M 763.787,40.2 H 778.3 c 0.1,0 0,-0.1 0,0 v 4.9 c 0,0.055 0.045,0.1 0.1,0.1 h 10 c 0.055,0 0.1,-0.045 0.1,-0.1 v -4.9 c 0,-0.1 -0.1,0 0,0 h 9.8 c 0.1,0 0,-0.1 0,0 v 4.9 c 0,0.055 0.045,0.1 0.1,0.1 h 10 c 0.055,0 0.1,-0.045 0.1,-0.1 v -4.9 c 0,-0.1 -0.1,0 0,0 h 9.8 c 0.1,0 0,-0.1 0,0 v 4.9 c 0,0.055 0.045,0.1 0.1,0.1 h 10 c 0.055,0 0.1,-0.045 0.1,-0.1 v -4.9 c 0,-0.1 -0.1,0 0,0 h 9.8 c 0.1,0 0,-0.1 0,0 v 4.9 c 0,0.055 0.045,0.1 0.1,0.1 h 10 c 0.055,0 0.1,-0.045 0.1,-0.1 v -4.9 c 0,-0.1 -0.1,0 0,0 h 9.8 c 0.1,0 0,-0.1 0,0 v 4.9 c 0,0.055 0.045,0.1 0.1,0.1 h 10 c 0.055,0 0.1,-0.045 0.1,-0.1 v -4.9 c 0,-0.1 -0.1,0 0,0 h 9.8 c 0.1,0 0,-0.1 0,0 v 4.9 c 0,0.055 0.045,0.1 0.1,0.1 h 10 c 0.055,0 0.1,-0.045 0.1,-0.1 v -4.9 c 0,-0.1 -0.1,0 0,0 h 9.8 c 0.1,0 0,-0.1 0,0 v 4.9 c 0,0.055 0.045,0.1 0.1,0.1 h 10 c 0.055,0 0.1,-0.045 0.1,-0.1 v -4.9 c 0,-0.1 -0.1,0 0,0 h 9.8 c 0.1,0 0,-0.1 0,0 v 4.9 c 0,0.055 0.045,0.1 0.1,0.1 h 10 c 0.055,0 0.1,-0.045 0.1,-0.1 v -4.9 c 0,-0.1 -0.1,0 0,0 h 14.513 2.887 c 0.055,0 0.1,-0.045 0.1,-0.1 v -7.25 c 0,-0.055 -0.045,-0.1 -0.1,-0.1 h -4.23 c -0.1,0 0,0.1 0,0 v -10.3 c 0,-0.1 -0.1,0 0,0 h 4.23 c 0.055,0 0.1,-0.045 0.1,-0.1 V 15.1 C 946,15.045 945.955,15 945.9,15 H 943.013 928.5 c -0.1,0 0,0.1 0,0 v -4.9 c 0,-0.055 -0.045,-0.1 -0.1,-0.1 h -10 c -0.055,0 -0.1,0.045 -0.1,0.1 V 15 c 0,0.1 0.1,0 0,0 h -9.8 c -0.1,0 0,0.1 0,0 v -4.9 c 0,-0.055 -0.045,-0.1 -0.1,-0.1 h -10 c -0.055,0 -0.1,0.045 -0.1,0.1 V 15 c 0,0.1 0.1,0 0,0 h -9.8 c -0.1,0 0,0.1 0,0 v -4.9 c 0,-0.055 -0.045,-0.1 -0.1,-0.1 h -10 c -0.055,0 -0.1,0.045 -0.1,0.1 V 15 c 0,0.1 0.1,0 0,0 h -9.8 c -0.1,0 0,0.1 0,0 v -4.9 c 0,-0.055 -0.045,-0.1 -0.1,-0.1 h -10 c -0.055,0 -0.1,0.045 -0.1,0.1 V 15 c 0,0.1 0.1,0 0,0 h -9.8 c -0.1,0 0,0.1 0,0 v -4.9 c 0,-0.055 -0.045,-0.1 -0.1,-0.1 h -10 c -0.055,0 -0.1,0.045 -0.1,0.1 V 15 c 0,0.1 0.1,0 0,0 h -9.8 c -0.1,0 0,0.1 0,0 v -4.9 c 0,-0.055 -0.045,-0.1 -0.1,-0.1 h -10 c -0.055,0 -0.1,0.045 -0.1,0.1 V 15 c 0,0.1 0.1,0 0,0 h -9.8 c -0.1,0 0,0.1 0,0 v -4.9 c 0,-0.055 -0.045,-0.1 -0.1,-0.1 h -10 c -0.055,0 -0.1,0.045 -0.1,0.1 V 15 c 0,0.1 0.1,0 0,0 h -9.8 c -0.1,0 0,0.1 0,0 v -4.9 c 0,-0.055 -0.045,-0.1 -0.1,-0.1 h -10 c -0.055,0 -0.1,0.045 -0.1,0.1 V 15 c 0,0.1 0.1,0 0,0 H 763.787 760.9 c -0.055,0 -0.1,0.045 -0.1,0.1 v 7.25 c 0,0.055 0.045,0.1 0.1,0.1 h 4.23 c 0.1,0 0,-0.1 0,0 v 10.3 c 0,0.1 0.1,0 0,0 h -4.23 c -0.055,0 -0.1,0.045 -0.1,0.1 v 7.25 c 0,0.055 0.045,0.1 0.1,0.1 h 2.887"
       stroke="#000000"
       stroke-width="0.2"
       id="path47-5"
       style="stroke:#ff0000" />
  </g>
  <g
     id="p-8-8"
     style="fill:none;stroke:#ff0000;stroke-linecap:round;stroke-linejoin:round"
     transform="translate(-484.18308,79.494801)">
    <text
       alignment-baseline="hanging"
       font-size="4px"
       style="font-style:normal;font-weight:normal;font-family:sans-serif;fill:#ff0000;stroke:#ff0000"
       text-anchor="middle"
       transform="translate(1041.1,25.7)"
       id="text50-0" />
    <path
       d="M 951.487,40.2 H 966 c 0.1,0 0,-0.1 0,0 v 4.9 c 0,0.055 0.045,0.1 0.1,0.1 h 10 c 0.055,0 0.1,-0.045 0.1,-0.1 v -4.9 c 0,-0.1 -0.1,0 0,0 h 9.8 c 0.1,0 0,-0.1 0,0 v 4.9 c 0,0.055 0.045,0.1 0.1,0.1 h 10 c 0.055,0 0.1,-0.045 0.1,-0.1 v -4.9 c 0,-0.1 -0.1,0 0,0 h 9.8 c 0.1,0 0,-0.1 0,0 v 4.9 c 0,0.055 0.045,0.1 0.1,0.1 h 10 c 0.055,0 0.1,-0.045 0.1,-0.1 v -4.9 c 0,-0.1 -0.1,0 0,0 h 9.8 c 0.1,0 0,-0.1 0,0 v 4.9 c 0,0.055 0.045,0.1 0.1,0.1 h 10 c 0.055,0 0.1,-0.045 0.1,-0.1 v -4.9 c 0,-0.1 -0.1,0 0,0 h 9.8 c 0.1,0 0,-0.1 0,0 v 4.9 c 0,0.055 0.045,0.1 0.1,0.1 h 10 c 0.055,0 0.1,-0.045 0.1,-0.1 v -4.9 c 0,-0.1 -0.1,0 0,0 h 9.8 c 0.1,0 0,-0.1 0,0 v 4.9 c 0,0.055 0.045,0.1 0.1,0.1 h 10 c 0.055,0 0.1,-0.045 0.1,-0.1 v -4.9 c 0,-0.1 -0.1,0 0,0 h 9.8 c 0.1,0 0,-0.1 0,0 v 4.9 c 0,0.055 0.045,0.1 0.1,0.1 h 10 c 0.055,0 0.1,-0.045 0.1,-0.1 v -4.9 c 0,-0.1 -0.1,0 0,0 h 9.8 c 0.1,0 0,-0.1 0,0 v 4.9 c 0,0.055 0.045,0.1 0.1,0.1 h 10 c 0.055,0 0.1,-0.045 0.1,-0.1 v -4.9 c 0,-0.1 -0.1,0 0,0 h 14.513 -1.443 c 0.055,0 0.1,-0.045 0.1,-0.1 v -7.4 c 0,-0.1 -0.1,0 0,0 h 4.23 c 0.055,0 0.1,-0.045 0.1,-0.1 v -10 c 0,-0.055 -0.045,-0.1 -0.1,-0.1 h -4.23 c -0.1,0 0,0.1 0,0 v -7.4 c 0,-0.055 -0.045,-0.1 -0.1,-0.1 h 1.443 -14.513 c -0.1,0 0,0.1 0,0 v -4.9 c 0,-0.055 -0.045,-0.1 -0.1,-0.1 h -10 c -0.055,0 -0.1,0.045 -0.1,0.1 V 15 c 0,0.1 0.1,0 0,0 h -9.8 c -0.1,0 0,0.1 0,0 v -4.9 c 0,-0.055 -0.045,-0.1 -0.1,-0.1 h -10 c -0.055,0 -0.1,0.045 -0.1,0.1 V 15 c 0,0.1 0.1,0 0,0 h -9.8 c -0.1,0 0,0.1 0,0 v -4.9 c 0,-0.055 -0.045,-0.1 -0.1,-0.1 h -10 c -0.055,0 -0.1,0.045 -0.1,0.1 V 15 c 0,0.1 0.1,0 0,0 h -9.8 c -0.1,0 0,0.1 0,0 v -4.9 c 0,-0.055 -0.045,-0.1 -0.1,-0.1 h -10 c -0.055,0 -0.1,0.045 -0.1,0.1 V 15 c 0,0.1 0.1,0 0,0 h -9.8 c -0.1,0 0,0.1 0,0 v -4.9 c 0,-0.055 -0.045,-0.1 -0.1,-0.1 h -10 c -0.055,0 -0.1,0.045 -0.1,0.1 V 15 c 0,0.1 0.1,0 0,0 h -9.8 c -0.1,0 0,0.1 0,0 v -4.9 c 0,-0.055 -0.045,-0.1 -0.1,-0.1 h -10 c -0.055,0 -0.1,0.045 -0.1,0.1 V 15 c 0,0.1 0.1,0 0,0 h -9.8 c -0.1,0 0,0.1 0,0 v -4.9 c 0,-0.055 -0.045,-0.1 -0.1,-0.1 h -10 c -0.055,0 -0.1,0.045 -0.1,0.1 V 15 c 0,0.1 0.1,0 0,0 h -9.8 c -0.1,0 0,0.1 0,0 v -4.9 c 0,-0.055 -0.045,-0.1 -0.1,-0.1 h -10 c -0.055,0 -0.1,0.045 -0.1,0.1 V 15 c 0,0.1 0.1,0 0,0 h -14.513 1.443 c -0.055,0 -0.1,0.045 -0.1,0.1 v 7.4 c 0,0.1 0.1,0 0,0 h -4.23 c -0.055,0 -0.1,0.045 -0.1,0.1 v 10 c 0,0.055 0.045,0.1 0.1,0.1 h 4.23 c 0.1,0 0,-0.1 0,0 v 7.4 c 0,0.055 0.045,0.1 0.1,0.1 h -1.443"
       stroke="#000000"
       stroke-width="0.2"
       id="path52-4"
       style="stroke:#ff0000" />
  </g>
  <g
     id="p-1-4"
     style="fill:none;stroke:#ff0000;stroke-linecap:round;stroke-linejoin:round"
     transform="translate(-9.66792,-47.46771)">
    <text
       alignment-baseline="hanging"
       font-size="4px"
       style="font-style:normal;font-weight:normal;font-family:sans-serif;fill:#ff0000;stroke:#ff0000"
       text-anchor="middle"
       transform="translate(195.1,206.115)"
       id="text13-7" />
    <path
       d="m 105.487,368.329 h 14.363 c 0.055,0 0.1,-0.044 0.1,-0.1 v -4.9 c 0,-0.1 -0.1,0 0,0 h 10.3 c 0.1,0 0,-0.1 0,0 v 4.9 c 0,0.056 0.045,0.1 0.1,0.1 h 9.5 c 0.055,0 0.1,-0.044 0.1,-0.1 v -4.9 c 0,-0.1 -0.1,0 0,0 h 10.3 c 0.1,0 0,-0.1 0,0 v 4.9 c 0,0.056 0.045,0.1 0.1,0.1 h 9.5 c 0.055,0 0.1,-0.044 0.1,-0.1 v -4.9 c 0,-0.1 -0.1,0 0,0 h 10.3 c 0.1,0 0,-0.1 0,0 v 4.9 c 0,0.056 0.045,0.1 0.1,0.1 h 9.5 c 0.055,0 0.1,-0.044 0.1,-0.1 v -4.9 c 0,-0.1 -0.1,0 0,0 h 10.3 c 0.1,0 0,-0.1 0,0 v 4.9 c 0,0.056 0.045,0.1 0.1,0.1 h 9.5 c 0.055,0 0.1,-0.044 0.1,-0.1 v -4.9 c 0,-0.1 -0.1,0 0,0 h 10.3 c 0.1,0 0,-0.1 0,0 v 4.9 c 0,0.056 0.045,0.1 0.1,0.1 h 9.5 c 0.055,0 0.1,-0.044 0.1,-0.1 v -4.9 c 0,-0.1 -0.1,0 0,0 h 10.3 c 0.1,0 0,-0.1 0,0 v 4.9 c 0,0.056 0.045,0.1 0.1,0.1 h 9.5 c 0.055,0 0.1,-0.044 0.1,-0.1 v -4.9 c 0,-0.1 -0.1,0 0,0 h 10.3 c 0.1,0 0,-0.1 0,0 v 4.9 c 0,0.056 0.045,0.1 0.1,0.1 h 9.5 c 0.055,0 0.1,-0.044 0.1,-0.1 v -4.9 c 0,-0.1 -0.1,0 0,0 h 10.3 c 0.1,0 0,-0.1 0,0 v 4.9 c 0,0.056 0.045,0.1 0.1,0.1 h 14.363 2.887 c 0.036,0 0.069,-0.019 0.087,-0.05 l 1.443,-2.5 7.182,-12.439 c 0.027,-0.047 0.011,-0.109 -0.037,-0.136 l -4.244,-2.45 c -0.086,-0.05 -0.05,0.086 0,0 l 5.15,-8.92 c 0.05,-0.087 -0.086,-0.05 0,0 l 4.244,2.45 c 0.048,0.027 0.109,0.011 0.137,-0.037 l 4.75,-8.227 c 0.027,-0.048 0.011,-0.109 -0.037,-0.137 l -4.244,-2.45 c -0.086,-0.05 -0.05,0.087 0,0 l 5.15,-8.92 c 0.05,-0.086 -0.086,-0.05 0,0 l 4.244,2.45 c 0.048,0.028 0.109,0.012 0.137,-0.036 l 4.75,-8.228 c 0.027,-0.047 0.011,-0.109 -0.037,-0.136 l -4.244,-2.45 c -0.086,-0.05 -0.05,0.086 0,0 l 5.15,-8.92 c 0.05,-0.087 -0.086,-0.05 0,0 l 4.244,2.45 c 0.048,0.027 0.109,0.011 0.137,-0.037 l 4.75,-8.227 c 0.027,-0.048 0.011,-0.109 -0.037,-0.137 l -4.244,-2.45 c -0.086,-0.05 -0.05,0.087 0,0 l 5.15,-8.92 c 0.05,-0.086 -0.086,-0.05 0,0 l 4.244,2.45 c 0.048,0.028 0.109,0.011 0.137,-0.036 l 4.75,-8.228 c 0.027,-0.047 0.011,-0.109 -0.037,-0.136 l -4.244,-2.45 c -0.086,-0.05 -0.05,0.086 0,0 l 5.15,-8.92 c 0.05,-0.087 -0.086,-0.05 0,0 l 4.244,2.45 c 0.048,0.027 0.109,0.011 0.137,-0.037 l 4.75,-8.227 c 0.027,-0.048 0.011,-0.109 -0.037,-0.137 l -4.244,-2.45 c -0.086,-0.05 -0.05,0.087 0,0 l 5.15,-8.92 c 0.05,-0.086 -0.086,-0.05 0,0 l 4.244,2.45 c 0.048,0.028 0.109,0.011 0.137,-0.036 l 4.75,-8.228 c 0.027,-0.047 0.011,-0.109 -0.037,-0.136 l -4.244,-2.45 c -0.086,-0.05 -0.05,0.086 0,0 l 5.15,-8.92 c 0.05,-0.087 -0.086,-0.05 0,0 l 4.244,2.45 c 0.048,0.027 0.109,0.011 0.137,-0.037 l 4.75,-8.227 c 0.027,-0.048 0.011,-0.109 -0.037,-0.137 l -4.244,-2.45 c -0.086,-0.05 -0.05,0.087 0,0 l 5.15,-8.92 c 0.05,-0.086 -0.086,-0.05 0,0 l 4.244,2.45 c 0.048,0.028 0.109,0.011 0.137,-0.036 l 7.181,-12.439 1.444,-2.5 c 0.017,-0.031 0.017,-0.069 0,-0.1 l -1.444,-2.5 -7.181,-12.439 c -0.028,-0.048 -0.089,-0.064 -0.137,-0.037 l -4.244,2.45 c -0.086,0.05 0.05,0.087 0,0 l -5.15,-8.92 c -0.05,-0.087 -0.086,0.05 0,0 l 4.244,-2.45 c 0.048,-0.028 0.064,-0.089 0.037,-0.137 l -4.75,-8.227 c -0.028,-0.048 -0.089,-0.064 -0.137,-0.036 l -4.244,2.45 c -0.086,0.05 0.05,0.086 0,0 l -5.15,-8.92 c -0.05,-0.087 -0.086,0.05 0,0 l 4.244,-2.45 c 0.048,-0.028 0.064,-0.089 0.037,-0.137 l -4.75,-8.227 c -0.028,-0.048 -0.089,-0.064 -0.137,-0.037 l -4.244,2.45 c -0.086,0.05 0.05,0.087 0,0 l -5.15,-8.92 c -0.05,-0.087 -0.086,0.05 0,0 l 4.244,-2.45 c 0.048,-0.028 0.064,-0.089 0.037,-0.137 l -4.75,-8.227 c -0.028,-0.048 -0.089,-0.064 -0.137,-0.036 l -4.244,2.45 c -0.086,0.05 0.05,0.086 0,0 l -5.15,-8.92 c -0.05,-0.087 -0.086,0.05 0,0 l 4.244,-2.45 c 0.048,-0.028 0.064,-0.089 0.037,-0.137 l -4.75,-8.227 c -0.028,-0.048 -0.089,-0.064 -0.137,-0.037 l -4.244,2.45 c -0.086,0.05 0.05,0.087 0,0 l -5.15,-8.92 c -0.05,-0.087 -0.086,0.05 0,0 l 4.244,-2.45 c 0.048,-0.028 0.064,-0.089 0.037,-0.137 l -4.75,-8.227 c -0.028,-0.048 -0.089,-0.064 -0.137,-0.036 l -4.244,2.45 c -0.086,0.05 0.05,0.086 0,0 l -5.15,-8.92 c -0.05,-0.087 -0.086,0.05 0,0 l 4.244,-2.45 c 0.048,-0.028 0.064,-0.089 0.037,-0.137 l -4.75,-8.227 c -0.028,-0.048 -0.089,-0.065 -0.137,-0.037 l -4.244,2.45 c -0.086,0.05 0.05,0.087 0,0 l -5.15,-8.92 c -0.05,-0.087 -0.086,0.05 0,0 l 4.244,-2.45 c 0.048,-0.028 0.064,-0.089 0.037,-0.137 l -4.75,-8.227 c -0.028,-0.048 -0.089,-0.064 -0.137,-0.036 l -4.244,2.45 c -0.086,0.05 0.05,0.086 0,0 l -5.15,-8.92 c -0.05,-0.087 -0.086,0.05 0,0 l 4.244,-2.45 c 0.048,-0.028 0.064,-0.089 0.037,-0.137 L 289.13,50.25 287.687,47.75 C 287.669,47.719 287.636,47.7 287.6,47.7 h -2.887 -14.363 c -0.055,0 -0.1,0.045 -0.1,0.1 v 4.9 c 0,0.1 0.1,0 0,0 h -10.3 c -0.1,0 0,0.1 0,0 v -4.9 c 0,-0.055 -0.045,-0.1 -0.1,-0.1 h -9.5 c -0.055,0 -0.1,0.045 -0.1,0.1 v 4.9 c 0,0.1 0.1,0 0,0 h -10.3 c -0.1,0 0,0.1 0,0 v -4.9 c 0,-0.055 -0.045,-0.1 -0.1,-0.1 h -9.5 c -0.055,0 -0.1,0.045 -0.1,0.1 v 4.9 c 0,0.1 0.1,0 0,0 h -10.3 c -0.1,0 0,0.1 0,0 v -4.9 c 0,-0.055 -0.045,-0.1 -0.1,-0.1 h -9.5 c -0.055,0 -0.1,0.045 -0.1,0.1 v 4.9 c 0,0.1 0.1,0 0,0 h -10.3 c -0.1,0 0,0.1 0,0 v -4.9 c 0,-0.055 -0.045,-0.1 -0.1,-0.1 h -9.5 c -0.055,0 -0.1,0.045 -0.1,0.1 v 4.9 c 0,0.1 0.1,0 0,0 h -10.3 c -0.1,0 0,0.1 0,0 v -4.9 c 0,-0.055 -0.045,-0.1 -0.1,-0.1 h -9.5 c -0.055,0 -0.1,0.045 -0.1,0.1 v 4.9 c 0,0.1 0.1,0 0,0 h -10.3 c -0.1,0 0,0.1 0,0 v -4.9 c 0,-0.055 -0.045,-0.1 -0.1,-0.1 h -9.5 c -0.055,0 -0.1,0.045 -0.1,0.1 v 4.9 c 0,0.1 0.1,0 0,0 h -10.3 c -0.1,0 0,0.1 0,0 v -4.9 c 0,-0.055 -0.045,-0.1 -0.1,-0.1 h -9.5 c -0.055,0 -0.1,0.045 -0.1,0.1 v 4.9 c 0,0.1 0.1,0 0,0 h -10.3 c -0.1,0 0,0.1 0,0 v -4.9 c 0,-0.055 -0.045,-0.1 -0.1,-0.1 H 105.487 102.6 c -0.036,0 -0.069,0.019 -0.087,0.05 l -1.443,2.5 -7.182,12.439 c -0.027,0.048 -0.011,0.109 0.037,0.137 l 4.244,2.45 c 0.086,0.05 0.05,-0.087 0,0 l -5.15,8.92 c -0.05,0.086 0.086,0.05 0,0 l -4.244,-2.45 c -0.048,-0.028 -0.109,-0.012 -0.137,0.036 l -4.75,8.227 c -0.027,0.048 -0.011,0.109 0.037,0.137 l 4.244,2.45 c 0.086,0.05 0.05,-0.087 0,0 l -5.15,8.92 c -0.05,0.087 0.086,0.05 0,0 l -4.244,-2.45 c -0.048,-0.028 -0.109,-0.011 -0.137,0.037 l -4.75,8.227 c -0.027,0.048 -0.011,0.109 0.037,0.137 l 4.244,2.45 c 0.086,0.05 0.05,-0.087 0,0 l -5.15,8.92 c -0.05,0.086 0.086,0.05 0,0 l -4.244,-2.45 c -0.048,-0.028 -0.109,-0.012 -0.137,0.036 l -4.75,8.227 c -0.027,0.048 -0.011,0.109 0.037,0.137 l 4.244,2.45 c 0.086,0.05 0.05,-0.087 0,0 l -5.15,8.92 c -0.05,0.087 0.086,0.05 0,0 l -4.244,-2.45 c -0.048,-0.027 -0.109,-0.011 -0.137,0.037 l -4.75,8.227 c -0.027,0.048 -0.011,0.109 0.037,0.137 l 4.244,2.45 c 0.086,0.05 0.05,-0.087 0,0 l -5.15,8.92 c -0.05,0.086 0.086,0.05 0,0 l -4.244,-2.45 c -0.048,-0.028 -0.109,-0.012 -0.137,0.036 l -4.75,8.227 c -0.027,0.048 -0.011,0.109 0.037,0.137 l 4.244,2.45 c 0.086,0.05 0.05,-0.087 0,0 l -5.15,8.92 c -0.05,0.087 0.086,0.05 0,0 l -4.244,-2.45 c -0.048,-0.027 -0.109,-0.011 -0.137,0.037 l -4.75,8.227 c -0.027,0.048 -0.011,0.109 0.037,0.137 l 4.244,2.45 c 0.086,0.05 0.05,-0.087 0,0 l -5.15,8.92 c -0.05,0.086 0.086,0.05 0,0 l -4.244,-2.45 c -0.048,-0.028 -0.109,-0.012 -0.137,0.036 l -4.75,8.227 c -0.027,0.048 -0.011,0.109 0.037,0.137 l 4.244,2.45 c 0.086,0.05 0.05,-0.087 0,0 l -5.15,8.92 c -0.05,0.087 0.086,0.05 0,0 l -4.244,-2.45 c -0.048,-0.027 -0.109,-0.011 -0.137,0.037 l -7.181,12.439 -1.444,2.5 c -0.017,0.031 -0.017,0.069 0,0.1 l 1.444,2.5 7.181,12.439 c 0.028,0.047 0.089,0.064 0.137,0.036 l 4.244,-2.45 c 0.086,-0.05 -0.05,-0.086 0,0 l 5.15,8.92 c 0.05,0.087 0.086,-0.05 0,0 l -4.244,2.45 c -0.048,0.028 -0.064,0.089 -0.037,0.137 l 4.75,8.227 c 0.028,0.048 0.089,0.064 0.137,0.037 l 4.244,-2.45 c 0.086,-0.05 -0.05,-0.087 0,0 l 5.15,8.92 c 0.05,0.086 0.086,-0.05 0,0 l -4.244,2.45 c -0.048,0.027 -0.064,0.089 -0.037,0.136 l 4.75,8.228 c 0.028,0.047 0.089,0.064 0.137,0.036 l 4.244,-2.45 c 0.086,-0.05 -0.05,-0.086 0,0 l 5.15,8.92 c 0.05,0.087 0.086,-0.05 0,0 l -4.244,2.45 c -0.048,0.028 -0.064,0.089 -0.037,0.137 l 4.75,8.227 c 0.028,0.048 0.089,0.064 0.137,0.037 l 4.244,-2.45 c 0.086,-0.05 -0.05,-0.087 0,0 l 5.15,8.92 c 0.05,0.086 0.086,-0.05 0,0 l -4.244,2.45 c -0.048,0.027 -0.064,0.089 -0.037,0.136 l 4.75,8.228 c 0.028,0.047 0.089,0.064 0.137,0.036 l 4.244,-2.45 c 0.086,-0.05 -0.05,-0.086 0,0 l 5.15,8.92 c 0.05,0.087 0.086,-0.05 0,0 l -4.244,2.45 c -0.048,0.028 -0.064,0.089 -0.037,0.137 l 4.75,8.227 c 0.028,0.048 0.089,0.064 0.137,0.037 l 4.244,-2.45 c 0.086,-0.05 -0.05,-0.087 0,0 l 5.15,8.92 c 0.05,0.086 0.086,-0.05 0,0 l -4.244,2.45 c -0.048,0.027 -0.064,0.089 -0.037,0.136 l 4.75,8.228 c 0.028,0.048 0.089,0.064 0.137,0.036 l 4.244,-2.45 c 0.086,-0.05 -0.05,-0.086 0,0 l 5.15,8.92 c 0.05,0.087 0.086,-0.05 0,0 l -4.244,2.45 c -0.048,0.028 -0.064,0.089 -0.037,0.137 l 4.75,8.227 c 0.028,0.048 0.089,0.064 0.137,0.037 l 4.244,-2.45 c 0.086,-0.05 -0.05,-0.087 0,0 l 5.15,8.92 c 0.05,0.086 0.086,-0.05 0,0 l -4.244,2.45 c -0.048,0.027 -0.064,0.089 -0.037,0.136 l 7.182,12.439 1.443,2.5 c 0.018,0.031 0.051,0.05 0.087,0.05 h 2.887"
       stroke="#000000"
       stroke-width="0.2"
       id="path15-3"
       style="stroke:#ff0000" />
  </g>
  <text
     alignment-baseline="hanging"
     font-size="4px"
     style="font-style:normal;font-weight:normal;font-family:sans-serif;fill:#ff0000;stroke:#ff0000;stroke-linecap:round;stroke-linejoin:round"
     text-anchor="middle"
     id="text20-5"
     x="558.13208"
     y="158.64729" />
  <path
     d="m 468.51908,320.86129 h 14.363 c 0.055,0 0.1,-0.044 0.1,-0.1 v -4.9 c 0,-0.1 -0.1,0 0,0 h 10.3 c 0.1,0 0,-0.1 0,0 v 4.9 c 0,0.056 0.045,0.1 0.1,0.1 h 9.5 c 0.055,0 0.1,-0.044 0.1,-0.1 v -4.9 c 0,-0.1 -0.1,0 0,0 h 10.3 c 0.1,0 0,-0.1 0,0 v 4.9 c 0,0.056 0.045,0.1 0.1,0.1 h 9.5 c 0.055,0 0.1,-0.044 0.1,-0.1 v -4.9 c 0,-0.1 -0.1,0 0,0 h 10.3 c 0.1,0 0,-0.1 0,0 v 4.9 c 0,0.056 0.045,0.1 0.1,0.1 h 9.5 c 0.055,0 0.1,-0.044 0.1,-0.1 v -4.9 c 0,-0.1 -0.1,0 0,0 h 10.3 c 0.1,0 0,-0.1 0,0 v 4.9 c 0,0.056 0.045,0.1 0.1,0.1 h 9.5 c 0.055,0 0.1,-0.044 0.1,-0.1 v -4.9 c 0,-0.1 -0.1,0 0,0 h 10.3 c 0.1,0 0,-0.1 0,0 v 4.9 c 0,0.056 0.045,0.1 0.1,0.1 h 9.5 c 0.055,0 0.1,-0.044 0.1,-0.1 v -4.9 c 0,-0.1 -0.1,0 0,0 h 10.3 c 0.1,0 0,-0.1 0,0 v 4.9 c 0,0.056 0.045,0.1 0.1,0.1 h 9.5 c 0.055,0 0.1,-0.044 0.1,-0.1 v -4.9 c 0,-0.1 -0.1,0 0,0 h 10.3 c 0.1,0 0,-0.1 0,0 v 4.9 c 0,0.056 0.045,0.1 0.1,0.1 h 9.5 c 0.055,0 0.1,-0.044 0.1,-0.1 v -4.9 c 0,-0.1 -0.1,0 0,0 h 10.3 c 0.1,0 0,-0.1 0,0 v 4.9 c 0,0.056 0.045,0.1 0.1,0.1 h 14.363 2.887 c 0.036,0 0.069,-0.019 0.087,-0.05 l 1.443,-2.5 7.182,-12.439 c 0.027,-0.047 0.011,-0.109 -0.037,-0.136 l -4.244,-2.45 c -0.086,-0.05 -0.05,0.086 0,0 l 5.15,-8.92 c 0.05,-0.087 -0.086,-0.05 0,0 l 4.244,2.45 c 0.048,0.027 0.109,0.011 0.137,-0.037 l 4.75,-8.227 c 0.027,-0.048 0.011,-0.109 -0.037,-0.137 l -4.244,-2.45 c -0.086,-0.05 -0.05,0.087 0,0 l 5.15,-8.92 c 0.05,-0.086 -0.086,-0.05 0,0 l 4.244,2.45 c 0.048,0.028 0.109,0.012 0.137,-0.036 l 4.75,-8.228 c 0.027,-0.047 0.011,-0.109 -0.037,-0.136 l -4.244,-2.45 c -0.086,-0.05 -0.05,0.086 0,0 l 5.15,-8.92 c 0.05,-0.087 -0.086,-0.05 0,0 l 4.244,2.45 c 0.048,0.027 0.109,0.011 0.137,-0.037 l 4.75,-8.227 c 0.027,-0.048 0.011,-0.109 -0.037,-0.137 l -4.244,-2.45 c -0.086,-0.05 -0.05,0.087 0,0 l 5.15,-8.92 c 0.05,-0.086 -0.086,-0.05 0,0 l 4.244,2.45 c 0.048,0.028 0.109,0.011 0.137,-0.036 l 4.75,-8.228 c 0.027,-0.047 0.011,-0.109 -0.037,-0.136 l -4.244,-2.45 c -0.086,-0.05 -0.05,0.086 0,0 l 5.15,-8.92 c 0.05,-0.087 -0.086,-0.05 0,0 l 4.244,2.45 c 0.048,0.027 0.109,0.011 0.137,-0.037 l 4.75,-8.227 c 0.027,-0.048 0.011,-0.109 -0.037,-0.137 l -4.244,-2.45 c -0.086,-0.05 -0.05,0.087 0,0 l 5.15,-8.92 c 0.05,-0.086 -0.086,-0.05 0,0 l 4.244,2.45 c 0.048,0.028 0.109,0.011 0.137,-0.036 l 4.75,-8.228 c 0.027,-0.047 0.011,-0.109 -0.037,-0.136 l -4.244,-2.45 c -0.086,-0.05 -0.05,0.086 0,0 l 5.15,-8.92 c 0.05,-0.087 -0.086,-0.05 0,0 l 4.244,2.45 c 0.048,0.027 0.109,0.011 0.137,-0.037 l 4.75,-8.227 c 0.027,-0.048 0.011,-0.109 -0.037,-0.137 l -4.244,-2.45 c -0.086,-0.05 -0.05,0.087 0,0 l 5.15,-8.92 c 0.05,-0.086 -0.086,-0.05 0,0 l 4.244,2.45 c 0.048,0.028 0.109,0.011 0.137,-0.036 l 7.181,-12.439 1.444,-2.5 c 0.017,-0.031 0.017,-0.069 0,-0.1 l -1.444,-2.5 -7.181,-12.439 c -0.028,-0.048 -0.089,-0.064 -0.137,-0.037 l -4.244,2.45 c -0.086,0.05 0.05,0.087 0,0 l -5.15,-8.92 c -0.05,-0.087 -0.086,0.05 0,0 l 4.244,-2.45 c 0.048,-0.028 0.064,-0.089 0.037,-0.137 l -4.75,-8.227 c -0.028,-0.048 -0.089,-0.064 -0.137,-0.036 l -4.244,2.45 c -0.086,0.05 0.05,0.086 0,0 l -5.15,-8.92 c -0.05,-0.087 -0.086,0.05 0,0 l 4.244,-2.45 c 0.048,-0.028 0.064,-0.089 0.037,-0.137 l -4.75,-8.227 c -0.028,-0.048 -0.089,-0.064 -0.137,-0.037 l -4.244,2.45 c -0.086,0.05 0.05,0.087 0,0 l -5.15,-8.92 c -0.05,-0.087 -0.086,0.05 0,0 l 4.244,-2.45 c 0.048,-0.028 0.064,-0.089 0.037,-0.137 l -4.75,-8.227 c -0.028,-0.048 -0.089,-0.064 -0.137,-0.036 l -4.244,2.45 c -0.086,0.05 0.05,0.086 0,0 l -5.15,-8.92 c -0.05,-0.087 -0.086,0.05 0,0 l 4.244,-2.45 c 0.048,-0.028 0.064,-0.089 0.037,-0.137 l -4.75,-8.227 c -0.028,-0.048 -0.089,-0.064 -0.137,-0.037 l -4.244,2.45 c -0.086,0.05 0.05,0.087 0,0 l -5.15,-8.92 c -0.05,-0.087 -0.086,0.05 0,0 l 4.244,-2.45 c 0.048,-0.028 0.064,-0.089 0.037,-0.137 l -4.75,-8.227 c -0.028,-0.048 -0.089,-0.064 -0.137,-0.036 l -4.244,2.45 c -0.086,0.05 0.05,0.086 0,0 l -5.15,-8.92 c -0.05,-0.087 -0.086,0.05 0,0 l 4.244,-2.45 c 0.048,-0.028 0.064,-0.089 0.037,-0.137 l -4.75,-8.227 c -0.028,-0.048 -0.089,-0.065 -0.137,-0.037 l -4.244,2.45 c -0.086,0.05 0.05,0.087 0,0 l -5.15,-8.92 c -0.05,-0.087 -0.086,0.05 0,0 l 4.244,-2.45 c 0.048,-0.028 0.064,-0.089 0.037,-0.137 l -4.75,-8.227 c -0.028,-0.048 -0.089,-0.064 -0.137,-0.036 l -4.244,2.45 c -0.086,0.05 0.05,0.086 0,0 l -5.15,-8.92 c -0.05,-0.087 -0.086,0.05 0,0 l 4.244,-2.45 c 0.048,-0.028 0.064,-0.089 0.037,-0.137 l -7.182,-12.439 -1.443,-2.5 c -0.018,-0.031 -0.051,-0.05 -0.087,-0.05 h -2.887 -14.363 c -0.055,0 -0.1,0.045 -0.1,0.1 v 4.9 c 0,0.1 0.1,0 0,0 h -10.3 c -0.1,0 0,0.1 0,0 v -4.9 c 0,-0.055 -0.045,-0.1 -0.1,-0.1 h -9.5 c -0.055,0 -0.1,0.045 -0.1,0.1 v 4.9 c 0,0.1 0.1,0 0,0 h -10.3 c -0.1,0 0,0.1 0,0 v -4.9 c 0,-0.055 -0.045,-0.1 -0.1,-0.1 h -9.5 c -0.055,0 -0.1,0.045 -0.1,0.1 v 4.9 c 0,0.1 0.1,0 0,0 h -10.3 c -0.1,0 0,0.1 0,0 v -4.9 c 0,-0.055 -0.045,-0.1 -0.1,-0.1 h -9.5 c -0.055,0 -0.1,0.045 -0.1,0.1 v 4.9 c 0,0.1 0.1,0 0,0 h -10.3 c -0.1,0 0,0.1 0,0 v -4.9 c 0,-0.055 -0.045,-0.1 -0.1,-0.1 h -9.5 c -0.055,0 -0.1,0.045 -0.1,0.1 v 4.9 c 0,0.1 0.1,0 0,0 h -10.3 c -0.1,0 0,0.1 0,0 v -4.9 c 0,-0.055 -0.045,-0.1 -0.1,-0.1 h -9.5 c -0.055,0 -0.1,0.045 -0.1,0.1 v 4.9 c 0,0.1 0.1,0 0,0 h -10.3 c -0.1,0 0,0.1 0,0 v -4.9 c 0,-0.055 -0.045,-0.1 -0.1,-0.1 h -9.5 c -0.055,0 -0.1,0.045 -0.1,0.1 v 4.9 c 0,0.1 0.1,0 0,0 h -10.3 c -0.1,0 0,0.1 0,0 v -4.9 c 0,-0.055 -0.045,-0.1 -0.1,-0.1 h -9.5 c -0.055,0 -0.1,0.045 -0.1,0.1 v 4.9 c 0,0.1 0.1,0 0,0 h -10.3 c -0.1,0 0,0.1 0,0 v -4.9 c 0,-0.055 -0.045,-0.1 -0.1,-0.1 h -14.363 -2.887 c -0.036,0 -0.069,0.019 -0.087,0.05 l -1.443,2.5 -7.182,12.439 c -0.027,0.048 -0.011,0.109 0.037,0.137 l 4.244,2.45 c 0.086,0.05 0.05,-0.087 0,0 l -5.15,8.92 c -0.05,0.086 0.086,0.05 0,0 l -4.244,-2.45 c -0.048,-0.028 -0.109,-0.012 -0.137,0.036 l -4.75,8.227 c -0.027,0.048 -0.011,0.109 0.037,0.137 l 4.244,2.45 c 0.086,0.05 0.05,-0.087 0,0 l -5.15,8.92 c -0.05,0.087 0.086,0.05 0,0 l -4.244,-2.45 c -0.048,-0.028 -0.109,-0.011 -0.137,0.037 l -4.75,8.227 c -0.027,0.048 -0.011,0.109 0.037,0.137 l 4.244,2.45 c 0.086,0.05 0.05,-0.087 0,0 l -5.15,8.92 c -0.05,0.086 0.086,0.05 0,0 l -4.244,-2.45 c -0.048,-0.028 -0.109,-0.012 -0.137,0.036 l -4.75,8.227 c -0.027,0.048 -0.011,0.109 0.037,0.137 l 4.244,2.45 c 0.086,0.05 0.05,-0.087 0,0 l -5.15,8.92 c -0.05,0.087 0.086,0.05 0,0 l -4.244,-2.45 c -0.048,-0.027 -0.109,-0.011 -0.137,0.037 l -4.75,8.227 c -0.027,0.048 -0.011,0.109 0.037,0.137 l 4.244,2.45 c 0.086,0.05 0.05,-0.087 0,0 l -5.15,8.92 c -0.05,0.086 0.086,0.05 0,0 l -4.244,-2.45 c -0.048,-0.028 -0.109,-0.012 -0.137,0.036 l -4.75,8.227 c -0.027,0.048 -0.011,0.109 0.037,0.137 l 4.244,2.45 c 0.086,0.05 0.05,-0.087 0,0 l -5.15,8.92 c -0.05,0.087 0.086,0.05 0,0 l -4.244,-2.45 c -0.048,-0.027 -0.109,-0.011 -0.137,0.037 l -4.75,8.227 c -0.027,0.048 -0.011,0.109 0.037,0.137 l 4.244,2.45 c 0.086,0.05 0.05,-0.087 0,0 l -5.15,8.92 c -0.05,0.086 0.086,0.05 0,0 l -4.244,-2.45 c -0.048,-0.028 -0.109,-0.012 -0.137,0.036 l -4.75,8.227 c -0.027,0.048 -0.011,0.109 0.037,0.137 l 4.244,2.45 c 0.086,0.05 0.05,-0.087 0,0 l -5.15,8.92 c -0.05,0.087 0.086,0.05 0,0 l -4.244,-2.45 c -0.048,-0.027 -0.109,-0.011 -0.137,0.037 l -7.181,12.439 -1.444,2.5 c -0.017,0.031 -0.017,0.069 0,0.1 l 1.444,2.5 7.181,12.439 c 0.028,0.047 0.089,0.064 0.137,0.036 l 4.244,-2.45 c 0.086,-0.05 -0.05,-0.086 0,0 l 5.15,8.92 c 0.05,0.087 0.086,-0.05 0,0 l -4.244,2.45 c -0.048,0.028 -0.064,0.089 -0.037,0.137 l 4.75,8.227 c 0.028,0.048 0.089,0.064 0.137,0.037 l 4.244,-2.45 c 0.086,-0.05 -0.05,-0.087 0,0 l 5.15,8.92 c 0.05,0.086 0.086,-0.05 0,0 l -4.244,2.45 c -0.048,0.027 -0.064,0.089 -0.037,0.136 l 4.75,8.228 c 0.028,0.047 0.089,0.064 0.137,0.036 l 4.244,-2.45 c 0.086,-0.05 -0.05,-0.086 0,0 l 5.15,8.92 c 0.05,0.087 0.086,-0.05 0,0 l -4.244,2.45 c -0.048,0.028 -0.064,0.089 -0.037,0.137 l 4.75,8.227 c 0.028,0.048 0.089,0.064 0.137,0.037 l 4.244,-2.45 c 0.086,-0.05 -0.05,-0.087 0,0 l 5.15,8.92 c 0.05,0.086 0.086,-0.05 0,0 l -4.244,2.45 c -0.048,0.027 -0.064,0.089 -0.037,0.136 l 4.75,8.228 c 0.028,0.047 0.089,0.064 0.137,0.036 l 4.244,-2.45 c 0.086,-0.05 -0.05,-0.086 0,0 l 5.15,8.92 c 0.05,0.087 0.086,-0.05 0,0 l -4.244,2.45 c -0.048,0.028 -0.064,0.089 -0.037,0.137 l 4.75,8.227 c 0.028,0.048 0.089,0.064 0.137,0.037 l 4.244,-2.45 c 0.086,-0.05 -0.05,-0.087 0,0 l 5.15,8.92 c 0.05,0.086 0.086,-0.05 0,0 l -4.244,2.45 c -0.048,0.027 -0.064,0.089 -0.037,0.136 l 4.75,8.228 c 0.028,0.048 0.089,0.064 0.137,0.036 l 4.244,-2.45 c 0.086,-0.05 -0.05,-0.086 0,0 l 5.15,8.92 c 0.05,0.087 0.086,-0.05 0,0 l -4.244,2.45 c -0.048,0.028 -0.064,0.089 -0.037,0.137 l 4.75,8.227 c 0.028,0.048 0.089,0.064 0.137,0.037 l 4.244,-2.45 c 0.086,-0.05 -0.05,-0.087 0,0 l 5.15,8.92 c 0.05,0.086 0.086,-0.05 0,0 l -4.244,2.45 c -0.048,0.027 -0.064,0.089 -0.037,0.136 l 7.182,12.439 1.443,2.5 c 0.018,0.031 0.051,0.05 0.087,0.05 h 2.887"
     stroke="#000000"
     stroke-width="0.2"
     id="path22-5"
     style="fill:none;stroke:#ff0000;stroke-linecap:round;stroke-linejoin:round" />
  <g
     id="g2048"
     transform="translate(-0.04473733,12.126414)">
    <circle
       style="fill:none;fill-rule:evenodd;stroke:#ff0000;stroke-width:0.264583;stroke-linecap:round;stroke-linejoin:round;stroke-miterlimit:4;stroke-dasharray:none"
       id="circle952"
       cx="-557.00641"
       cy="-61.479057"
       transform="scale(-1)"
       r="7.5" />
    <circle
       style="fill:none;fill-rule:evenodd;stroke:#ff0000;stroke-width:0.264583;stroke-linecap:round;stroke-linejoin:round;stroke-miterlimit:4;stroke-dasharray:none"
       id="circle954"
       cx="-546.38867"
       cy="-61.479057"
       r="1.1177084"
       transform="scale(-1)" />
    <circle
       style="fill:none;fill-rule:evenodd;stroke:#ff0000;stroke-width:0.264583;stroke-linecap:round;stroke-linejoin:round;stroke-miterlimit:4;stroke-dasharray:none"
       id="circle1963"
       cx="-567.62415"
       cy="-61.479057"
       r="1.1177084"
       transform="scale(-1)" />
  </g>
  <g
     id="g2077"
     transform="translate(-4.0491406e-5,85.030349)">
    <path
       id="circle2071"
       style="fill:none;fill-rule:evenodd;stroke:#ff0000;stroke-width:0.264583;stroke-linecap:round;stroke-linejoin:round"
       transform="scale(-1)"
       d="m -549.50641,-61.479057 a 7.5,7.5 0 0 1 -7.5,7.5 7.5,7.5 0 0 1 -7.5,-7.5 7.5,7.5 0 0 1 7.5,-7.5 7.5,7.5 0 0 1 7.5,7.5 z" />
    <path
       id="circle2073"
       style="fill:none;fill-rule:evenodd;stroke:#ff0000;stroke-width:0.264583;stroke-linecap:round;stroke-linejoin:round"
       transform="scale(-1)"
       d="m -545.27096,-61.479057 a 1.1177084,1.1177084 0 0 1 -1.11771,1.117708 1.1177084,1.1177084 0 0 1 -1.11771,-1.117708 1.1177084,1.1177084 0 0 1 1.11771,-1.117709 1.1177084,1.1177084 0 0 1 1.11771,1.117709 z" />
    <path
       id="circle2075"
       style="fill:none;fill-rule:evenodd;stroke:#ff0000;stroke-width:0.264583;stroke-linecap:round;stroke-linejoin:round"
       transform="scale(-1)"
       d="m -566.50644,-61.479057 a 1.1177084,1.1177084 0 0 1 -1.11771,1.117708 1.1177084,1.1177084 0 0 1 -1.1177,-1.117708 1.1177084,1.1177084 0 0 1 1.1177,-1.117709 1.1177084,1.1177084 0 0 1 1.11771,1.117709 z" />
  </g>
  <circle
     style="fill:none;stroke:#ff0000;stroke-width:0.2;stroke-opacity:1"
     id="path934"
     cx="558.13208"
     cy="160.54688"
     r="140" />
  <circle
     style="fill:none;stroke:#ff0000;stroke-width:0.264583;stroke-linecap:round"
     id="path922"
     cx="617.43811"
     cy="97.632324"
     r="2.5" />
  <g
     inkscape:groupmode="layer"
     id="layer1"
     inkscape:label="Decoupe"
     style="display:none" />
  <g
     inkscape:groupmode="layer"
     id="layer2"
     inkscape:label="Francais"
     style="display:none">
    <g
       inkscape:label="Hershey Text"
       style="display:none;fill:none;stroke:#000000;stroke-width:1.98213;stroke-linecap:round;stroke-linejoin:round"
       id="g2376"
       transform="matrix(0.51492637,0,0,0.49429887,249.24226,69.017626)">
      <g
         transform="translate(581.181,135.773)"
         id="g2374"
         style="stroke:#000000;stroke-width:1.98213">
        <path
           d="M 220,662 V 0 m 0,662 h 284 l 94,-32 32,-32 32,-62 V 441 L 630,378 598,346 504,315 H 220"
           style="stroke:#000000;stroke-width:0.782942in"
           transform="scale(0.0105833,-0.0105833)"
           id="path2364" />
        <path
           d="M 220,662 V 0 m 0,0 h 378"
           style="stroke:#000000;stroke-width:0.782942in"
           transform="matrix(0.0105833,0,0,-0.0105833,7.00614,0)"
           id="path2366" />
        <path
           d="M 378,662 126,0 M 378,662 630,0 M 220,220 h 316"
           style="stroke:#000000;stroke-width:0.782942in"
           transform="matrix(0.0105833,0,0,-0.0105833,12.6788,0)"
           id="path2368" />
        <path
           d="M 346,662 V 0 M 126,662 h 441"
           style="stroke:#000000;stroke-width:0.782942in"
           transform="matrix(0.0105833,0,0,-0.0105833,18.6795,0)"
           id="path2370" />
        <path
           d="M 220,662 V 0 m 0,662 H 630 M 220,346 H 472 M 220,0 h 410"
           style="stroke:#000000;stroke-width:0.782942in"
           transform="matrix(0.0105833,0,0,-0.0105833,24.0135,0)"
           id="path2372" />
      </g>
    </g>
    <g
       inkscape:label="Hershey Text"
       style="fill:none;stroke:#000000;stroke-linecap:round;stroke-linejoin:round"
       id="g24650"
       transform="translate(3.8668682,2.7893288)">
      <g
         transform="translate(542.037,133.317)"
         id="g24648">
        <path
           d="M 378,662 126,0 M 378,662 630,0 M 220,220 h 316"
           style="stroke-width:0.8362in"
           transform="scale(0.005,-0.005)"
           id="path24632" />
        <path
           d="m 630,567 -63,63 -95,32 H 346 l -94,-32 -63,-63 v -63 l 31,-63 32,-31 63,-32 189,-63 63,-31 31,-32 32,-63 V 94.5 L 567,31.5 472,0 H 346 l -94,31.5 -63,63"
           style="stroke-width:0.8362in"
           transform="matrix(0.005,0,0,-0.005,2.835,0)"
           id="path24634" />
        <path
           d="m 630,567 -63,63 -95,32 H 346 l -94,-32 -63,-63 v -63 l 31,-63 32,-31 63,-32 189,-63 63,-31 31,-32 32,-63 V 94.5 L 567,31.5 472,0 H 346 l -94,31.5 -63,63"
           style="stroke-width:0.8362in"
           transform="matrix(0.005,0,0,-0.005,5.985,0)"
           id="path24636" />
        <path
           d="M 220,662 V 0"
           style="stroke-width:0.8362in"
           transform="matrix(0.005,0,0,-0.005,9.135,0)"
           id="path24638" />
        <path
           d="M 220,662 V 0 m 0,662 H 630 M 220,346 H 472 M 220,0 h 410"
           style="stroke-width:0.8362in"
           transform="matrix(0.005,0,0,-0.005,10.395,0)"
           id="path24640" />
        <path
           d="M 346,662 V 0 M 126,662 h 441"
           style="stroke-width:0.8362in"
           transform="matrix(0.005,0,0,-0.005,13.385,0)"
           id="path24642" />
        <path
           d="M 346,662 V 0 M 126,662 h 441"
           style="stroke-width:0.8362in"
           transform="matrix(0.005,0,0,-0.005,15.905,0)"
           id="path24644" />
        <path
           d="M 220,662 V 0 m 0,662 H 630 M 220,346 H 472 M 220,0 h 410"
           style="stroke-width:0.8362in"
           transform="matrix(0.005,0,0,-0.005,18.425,0)"
           id="path24646" />
      </g>
    </g>
    <g
       transform="translate(550.16262,63.132298)"
       id="g25014"
       style="display:inline;fill:none;stroke:#000000;stroke-linecap:round;stroke-linejoin:round">
      <path
         d="M 220,662 V 0 m 0,0 h 378"
         style="stroke-width:0.8362in"
         transform="scale(0.005,-0.005)"
         id="path25006" />
      <path
         d="M 220,662 V 0 m 0,662 H 630 M 220,346 H 472 M 220,0 h 410"
         style="stroke-width:0.8362in"
         transform="matrix(0.005,0,0,-0.005,2.68,0)"
         id="path25008" />
      <path
         d="M 220,662 V 0 m 0,662 h 221 l 95,-32 62,-63 32,-63 32,-94 V 252 L 630,158 598,94.5 536,31.5 441,0 H 220"
         style="stroke-width:0.8362in"
         transform="matrix(0.005,0,0,-0.005,5.67,0)"
         id="path25010" />
      <path
         d="m 630,567 -63,63 -95,32 H 346 l -94,-32 -63,-63 v -63 l 31,-63 32,-31 63,-32 189,-63 63,-31 31,-32 32,-63 V 94.5 L 567,31.5 472,0 H 346 l -94,31.5 -63,63"
         style="stroke-width:0.8362in"
         transform="matrix(0.005,0,0,-0.005,8.98,0)"
         id="path25012" />
    </g>
    <g
       inkscape:label="Hershey Text"
       style="fill:none;stroke:#000000;stroke-linecap:round;stroke-linejoin:round"
       id="g24484"
       transform="translate(22.156717,-69.695613)">
      <g
         transform="translate(544.901,172.507)"
         id="g24482">
        <path
           d="m 662,504 -32,63 -63,63 -63,32 H 378 L 315,630 252,567 220,504 189,410 V 252 l 31,-94 32,-63.5 63,-63 L 378,0 h 126 l 63,31.5 63,63 32,63.5"
           style="stroke-width:0.8362in"
           transform="scale(0.005,-0.005)"
           id="path24470" />
        <path
           d="M 220,662 V 0 M 662,662 V 0 M 220,346 h 442"
           style="stroke-width:0.8362in"
           transform="matrix(0.005,0,0,-0.005,3.31,0)"
           id="path24472" />
        <path
           d="M 378,662 126,0 M 378,662 630,0 M 220,220 h 316"
           style="stroke-width:0.8362in"
           transform="matrix(0.005,0,0,-0.005,6.775,0)"
           id="path24474" />
        <path
           d="M 220,662 V 0 m 0,662 h 284 l 94,-32 32,-32 32,-62 V 472 L 630,410 598,378 504,346 H 220 M 441,346 662,0"
           style="stroke-width:0.8362in"
           transform="matrix(0.005,0,0,-0.005,9.61,0)"
           id="path24476" />
        <path
           d="m 662,504 -32,63 -63,63 -63,32 H 378 L 315,630 252,567 220,504 189,410 V 252 l 31,-94 32,-63.5 63,-63 L 378,0 h 126 l 63,31.5 63,63 32,63.5 v 94 m -158,0 h 158"
           style="stroke-width:0.8362in"
           transform="matrix(0.005,0,0,-0.005,12.92,0)"
           id="path24478" />
        <path
           d="M 220,662 V 0 m 0,662 H 630 M 220,346 H 472 M 220,0 h 410"
           style="stroke-width:0.8362in"
           transform="matrix(0.005,0,0,-0.005,16.23,0)"
           id="path24480" />
      </g>
    </g>
    <g
       inkscape:label="Hershey Text"
       style="display:inline;fill:none;stroke:#000000;stroke-linecap:round;stroke-linejoin:round"
       id="g1331"
       transform="translate(-41.255334,6.1721034)">
      <g
         transform="translate(545.974,96.2747)"
         id="g1329">
        <path
           d="M 378,662 315,630 252,567 220,504 189,410 V 252 l 31,-94 32,-63.5 63,-63 L 378,0 h 126 l 63,31.5 63,63 32,63.5 31,94 v 158 l -31,94 -32,63 -63,63 -63,32 H 378"
           style="stroke-width:0.8362in"
           transform="scale(0.005,-0.005)"
           id="path1317" />
        <path
           d="M 220,662 V 0 M 220,662 662,0 m 0,662 V 0"
           style="stroke-width:0.8362in"
           transform="matrix(0.005,0,0,-0.005,3.465,0)"
           id="path1319" />
        <path
           d="M 724,788 158,-220"
           style="stroke-width:0.8362in"
           transform="matrix(0.005,0,0,-0.005,8.82,0)"
           id="path1321" />
        <path
           d="M 378,662 315,630 252,567 220,504 189,410 V 252 l 31,-94 32,-63.5 63,-63 L 378,0 h 126 l 63,31.5 63,63 32,63.5 31,94 v 158 l -31,94 -32,63 -63,63 -63,32 H 378"
           style="stroke-width:0.8362in"
           transform="matrix(0.005,0,0,-0.005,14.175,0)"
           id="path1323" />
        <path
           d="M 220,662 V 0 m 0,662 H 630 M 220,346 h 252"
           style="stroke-width:0.8362in"
           transform="matrix(0.005,0,0,-0.005,17.64,0)"
           id="path1325" />
        <path
           d="M 220,662 V 0 m 0,662 H 630 M 220,346 h 252"
           style="stroke-width:0.8362in"
           transform="matrix(0.005,0,0,-0.005,20.475,0)"
           id="path1327" />
      </g>
    </g>
  </g>
  <g
     inkscape:groupmode="layer"
     id="layer3"
     inkscape:label="English"
     style="display:inline">
    <g
       transform="translate(550.16262,63.132298)"
       id="g1248"
       style="display:none;fill:none;stroke:#000000;stroke-linecap:round;stroke-linejoin:round">
      <path
         d="M 220,662 V 0 m 0,0 h 378"
         style="stroke-width:0.8362in"
         transform="scale(0.005,-0.005)"
         id="path1240" />
      <path
         d="M 220,662 V 0 m 0,662 H 630 M 220,346 H 472 M 220,0 h 410"
         style="stroke-width:0.8362in"
         transform="matrix(0.005,0,0,-0.005,2.68,0)"
         id="path1242" />
      <path
         d="M 220,662 V 0 m 0,662 h 221 l 95,-32 62,-63 32,-63 32,-94 V 252 L 630,158 598,94.5 536,31.5 441,0 H 220"
         style="stroke-width:0.8362in"
         transform="matrix(0.005,0,0,-0.005,5.67,0)"
         id="path1244" />
      <path
         d="m 630,567 -63,63 -95,32 H 346 l -94,-32 -63,-63 v -63 l 31,-63 32,-31 63,-32 189,-63 63,-31 31,-32 32,-63 V 94.5 L 567,31.5 472,0 H 346 l -94,31.5 -63,63"
         style="stroke-width:0.8362in"
         transform="matrix(0.005,0,0,-0.005,8.98,0)"
         id="path1246" />
    </g>
    <g
       transform="translate(550.16262,63.132298)"
       id="g1278"
       style="display:inline;fill:none;stroke:#000000;stroke-linecap:round;stroke-linejoin:round">
      <path
         d="M 220,662 V 0 m 0,0 h 378"
         style="stroke-width:0.8362in"
         transform="scale(0.005,-0.005)"
         id="path1270" />
      <path
         d="M 220,662 V 0 m 0,662 H 630 M 220,346 H 472 M 220,0 h 410"
         style="stroke-width:0.8362in"
         transform="matrix(0.005,0,0,-0.005,2.68,0)"
         id="path1272" />
      <path
         d="M 220,662 V 0 m 0,662 h 221 l 95,-32 62,-63 32,-63 32,-94 V 252 L 630,158 598,94.5 536,31.5 441,0 H 220"
         style="stroke-width:0.8362in"
         transform="matrix(0.005,0,0,-0.005,5.67,0)"
         id="path1274" />
      <path
         d="m 630,567 -63,63 -95,32 H 346 l -94,-32 -63,-63 v -63 l 31,-63 32,-31 63,-32 189,-63 63,-31 31,-32 32,-63 V 94.5 L 567,31.5 472,0 H 346 l -94,31.5 -63,63"
         style="stroke-width:0.8362in"
         transform="matrix(0.005,0,0,-0.005,8.98,0)"
         id="path1276" />
    </g>
    <g
       inkscape:label="Hershey Text"
       style="fill:none;stroke:#000000;stroke-linecap:round;stroke-linejoin:round"
       id="g1299"
       transform="translate(22.156716,-69.695613)">
      <g
         transform="translate(544.901,172.507)"
         id="g1297">
        <path
           d="m 662,504 -32,63 -63,63 -63,32 H 378 L 315,630 252,567 220,504 189,410 V 252 l 31,-94 32,-63.5 63,-63 L 378,0 h 126 l 63,31.5 63,63 32,63.5"
           style="stroke-width:0.8362in"
           transform="scale(0.005,-0.005)"
           id="path1285" />
        <path
           d="M 220,662 V 0 M 662,662 V 0 M 220,346 h 442"
           style="stroke-width:0.8362in"
           transform="matrix(0.005,0,0,-0.005,3.31,0)"
           id="path1287" />
        <path
           d="M 378,662 126,0 M 378,662 630,0 M 220,220 h 316"
           style="stroke-width:0.8362in"
           transform="matrix(0.005,0,0,-0.005,6.775,0)"
           id="path1289" />
        <path
           d="M 220,662 V 0 m 0,662 h 284 l 94,-32 32,-32 32,-62 V 472 L 630,410 598,378 504,346 H 220 M 441,346 662,0"
           style="stroke-width:0.8362in"
           transform="matrix(0.005,0,0,-0.005,9.61,0)"
           id="path1291" />
        <path
           d="m 662,504 -32,63 -63,63 -63,32 H 378 L 315,630 252,567 220,504 189,410 V 252 l 31,-94 32,-63.5 63,-63 L 378,0 h 126 l 63,31.5 63,63 32,63.5 v 94 m -158,0 h 158"
           style="stroke-width:0.8362in"
           transform="matrix(0.005,0,0,-0.005,12.92,0)"
           id="path1293" />
        <path
           d="M 220,662 V 0 m 0,662 H 630 M 220,346 H 472 M 220,0 h 410"
           style="stroke-width:0.8362in"
           transform="matrix(0.005,0,0,-0.005,16.23,0)"
           id="path1295" />
      </g>
    </g>
    <g
       inkscape:label="Hershey Text"
       style="fill:none;stroke:#000000;stroke-linecap:round;stroke-linejoin:round"
       id="g24830"
       transform="translate(-41.255333,6.1721034)">
      <g
         transform="translate(545.974,96.2747)"
         id="g24828">
        <path
           d="M 378,662 315,630 252,567 220,504 189,410 V 252 l 31,-94 32,-63.5 63,-63 L 378,0 h 126 l 63,31.5 63,63 32,63.5 31,94 v 158 l -31,94 -32,63 -63,63 -63,32 H 378"
           style="stroke-width:0.8362in"
           transform="scale(0.005,-0.005)"
           id="path24816" />
        <path
           d="M 220,662 V 0 M 220,662 662,0 m 0,662 V 0"
           style="stroke-width:0.8362in"
           transform="matrix(0.005,0,0,-0.005,3.465,0)"
           id="path24818" />
        <path
           d="M 724,788 158,-220"
           style="stroke-width:0.8362in"
           transform="matrix(0.005,0,0,-0.005,8.82,0)"
           id="path24820" />
        <path
           d="M 378,662 315,630 252,567 220,504 189,410 V 252 l 31,-94 32,-63.5 63,-63 L 378,0 h 126 l 63,31.5 63,63 32,63.5 31,94 v 158 l -31,94 -32,63 -63,63 -63,32 H 378"
           style="stroke-width:0.8362in"
           transform="matrix(0.005,0,0,-0.005,14.175,0)"
           id="path24822" />
        <path
           d="M 220,662 V 0 m 0,662 H 630 M 220,346 h 252"
           style="stroke-width:0.8362in"
           transform="matrix(0.005,0,0,-0.005,17.64,0)"
           id="path24824" />
        <path
           d="M 220,662 V 0 m 0,662 H 630 M 220,346 h 252"
           style="stroke-width:0.8362in"
           transform="matrix(0.005,0,0,-0.005,20.475,0)"
           id="path24826" />
      </g>
    </g>
    <g
       inkscape:label="Hershey Text"
       style="display:inline;fill:none;stroke:#000000;stroke-linecap:round;stroke-linejoin:round"
       id="g2125"
       transform="translate(-30.068531,-1.5875)">
      <g
         transform="translate(578.518,138.258)"
         id="g2123">
        <path
           d="M 220,662 V 0 m 0,662 h 284 l 94,-32 32,-32 32,-62 V 441 L 630,378 598,346 504,315 H 220"
           style="stroke-width:0.762in"
           transform="scale(0.00548694,-0.00548694)"
           id="path2113" />
        <path
           d="M 220,662 V 0 m 0,0 h 378"
           style="stroke-width:0.762in"
           transform="matrix(0.00548694,0,0,-0.00548694,3.63235,0)"
           id="path2115" />
        <path
           d="M 378,662 126,0 M 378,662 630,0 M 220,220 h 316"
           style="stroke-width:0.762in"
           transform="matrix(0.00548694,0,0,-0.00548694,6.57335,0)"
           id="path2117" />
        <path
           d="M 346,662 V 0 M 126,662 h 441"
           style="stroke-width:0.762in"
           transform="matrix(0.00548694,0,0,-0.00548694,9.68445,0)"
           id="path2119" />
        <path
           d="M 220,662 V 0 m 0,662 H 630 M 220,346 H 472 M 220,0 h 410"
           style="stroke-width:0.762in"
           transform="matrix(0.00548694,0,0,-0.00548694,12.4499,0)"
           id="path2121" />
      </g>
    </g>
  </g>
</svg>
