<?xml version="1.0" encoding="UTF-8" standalone="no"?>
<!-- Created with Inkscape (http://www.inkscape.org/) -->

<svg
   width="55.818245mm"
   height="145.10092mm"
   viewBox="0 0 55.818245 145.10092"
   version="1.1"
   id="svg10198"
   inkscape:version="1.1.2 (0a00cf5339, 2022-02-04, custom)"
   sodipodi:docname="GabaritPercagePourAimants.svg"
   xmlns:inkscape="http://www.inkscape.org/namespaces/inkscape"
   xmlns:sodipodi="http://sodipodi.sourceforge.net/DTD/sodipodi-0.dtd"
   xmlns="http://www.w3.org/2000/svg"
   xmlns:svg="http://www.w3.org/2000/svg">
  <sodipodi:namedview
     id="namedview10200"
     pagecolor="#ffffff"
     bordercolor="#666666"
     borderopacity="1.0"
     inkscape:pageshadow="2"
     inkscape:pageopacity="0.0"
     inkscape:pagecheckerboard="0"
     inkscape:document-units="mm"
     showgrid="false"
     inkscape:zoom="0.80087682"
     inkscape:cx="536.91153"
     inkscape:cy="-226.62661"
     inkscape:window-width="3840"
     inkscape:window-height="2081"
     inkscape:window-x="-9"
     inkscape:window-y="-9"
     inkscape:window-maximized="1"
     inkscape:current-layer="layer1" />
  <defs
     id="defs10195" />
  <g
     inkscape:label="Calque 1"
     inkscape:groupmode="layer"
     id="layer1"
     transform="translate(37.159395,-208.59192)">
    <rect
       style="vector-effect:none;fill:#00ff00;fill-opacity:1;fill-rule:evenodd;stroke:#ff0000;stroke-width:0.264583;stroke-linecap:butt;stroke-linejoin:miter;stroke-miterlimit:4;stroke-dasharray:none;stroke-dashoffset:0;stroke-opacity:1"
       id="rect1577"
       width="55.553661"
       height="144.83633"
       x="-37.027103"
       y="208.72421"
       ry="5.952178" />
    <circle
       style="fill:#00ff00;fill-rule:evenodd;stroke:#ff0000;stroke-width:0.264583;stroke-linecap:round;stroke-linejoin:round;stroke-miterlimit:4;stroke-dasharray:none"
       id="circle1764"
       cx="-223.5742"
       cy="-19.267979"
       transform="rotate(-90)"
       r="4.8499999" />
    <circle
       style="fill:#00ff00;fill-rule:evenodd;stroke:#ff0000;stroke-width:0.264583;stroke-linecap:round;stroke-linejoin:round;stroke-miterlimit:4;stroke-dasharray:none"
       id="circle1766"
       cx="-246.6656"
       cy="-19.250278"
       transform="rotate(-90)"
       r="4.8000002" />
    <circle
       style="fill:#00ff00;fill-rule:evenodd;stroke:#ff0000;stroke-width:0.264583;stroke-linecap:round;stroke-linejoin:round;stroke-miterlimit:4;stroke-dasharray:none"
       id="circle1768"
       cx="-269.73935"
       cy="-19.250278"
       transform="rotate(-90)"
       r="4.75" />
    <circle
       style="fill:#00ff00;fill-rule:evenodd;stroke:#ff0000;stroke-width:0.264583;stroke-linecap:round;stroke-linejoin:round;stroke-miterlimit:4;stroke-dasharray:none"
       id="circle1770"
       cx="-292.81311"
       cy="-19.250278"
       transform="rotate(-90)"
       r="4.6999998" />
    <circle
       style="fill:#00ff00;fill-rule:evenodd;stroke:#ff0000;stroke-width:0.264583;stroke-linecap:round;stroke-linejoin:round;stroke-miterlimit:4;stroke-dasharray:none"
       id="circle1772"
       cx="-315.88684"
       cy="-19.250278"
       transform="rotate(-90)"
       r="4.6500001" />
    <circle
       style="fill:#00ff00;fill-rule:evenodd;stroke:#ff0000;stroke-width:0.264583;stroke-linecap:round;stroke-linejoin:round;stroke-miterlimit:4;stroke-dasharray:none"
       id="circle1774"
       cx="-338.96054"
       cy="-19.250278"
       transform="rotate(-90)"
       r="4.5999999" />
    <g
       aria-label="9.7"
       id="text3078"
       style="font-size:7.99999px;line-height:1.25;text-align:end;letter-spacing:0px;word-spacing:0px;text-anchor:end;fill:none;stroke:#000000;stroke-width:0.264583"
       transform="translate(-384.67838,-91.309631)">
      <path
         d="m 381.51916,315.29569 q 0,0.616 -0.112,1.216 -0.104,0.592 -0.392,1.08 -0.28,0.48 -0.8,0.768 -0.512,0.288 -1.32,0.288 -0.16,0 -0.376,-0.024 -0.216,-0.016 -0.344,-0.056 v -0.6 q 0.312,0.104 0.704,0.104 0.56,0 0.92,-0.184 0.368,-0.184 0.584,-0.496 0.216,-0.32 0.312,-0.736 0.096,-0.424 0.112,-0.888 h -0.048 q -0.184,0.272 -0.512,0.472 -0.328,0.192 -0.848,0.192 -0.736,0 -1.192,-0.448 -0.448,-0.456 -0.448,-1.28 0,-0.6 0.224,-1.032 0.224,-0.432 0.632,-0.664 0.416,-0.23199 0.968,-0.23199 0.544,0 0.984,0.27999 0.44,0.272 0.696,0.832 0.256,0.552 0.256,1.408 z m -1.936,-1.928 q -0.496,0 -0.816,0.328 -0.312,0.328 -0.312,1 0,0.552 0.264,0.872 0.272,0.312 0.832,0.312 0.384,0 0.664,-0.152 0.28,-0.16 0.432,-0.4 0.16,-0.24 0.16,-0.496 0,-0.344 -0.136,-0.68 -0.136,-0.336 -0.408,-0.56 -0.272,-0.224 -0.68,-0.224 z"
         id="path3232"
         style="fill:none;stroke:#000000" />
      <path
         d="m 382.51116,318.13569 q 0,-0.296 0.144,-0.416 0.144,-0.12 0.344,-0.12 0.2,0 0.352,0.12 0.152,0.12 0.152,0.416 0,0.288 -0.152,0.416 -0.152,0.128 -0.352,0.128 -0.2,0 -0.344,-0.128 -0.144,-0.128 -0.144,-0.416 z"
         id="path3234"
         style="fill:none;stroke:#000000" />
      <path
         d="m 385.16715,318.56769 2.344,-5.072 h -3.08 v -0.63999 h 3.832 v 0.54399 l -2.32,5.168 z"
         id="path3236"
         style="fill:none;stroke:#000000" />
    </g>
    <g
       aria-label="9.6"
       id="text3779"
       style="font-size:7.99999px;line-height:1.25;text-align:end;letter-spacing:0px;word-spacing:0px;text-anchor:end;fill:none;stroke:#000000;stroke-width:0.264583"
       transform="translate(-374.81751,-89.807365)">
      <path
         d="m 371.65828,336.70756 q 0,0.616 -0.112,1.216 -0.104,0.592 -0.39199,1.07999 -0.28,0.48 -0.8,0.768 -0.512,0.288 -1.32,0.288 -0.16,0 -0.376,-0.024 -0.216,-0.016 -0.344,-0.056 v -0.6 q 0.312,0.104 0.704,0.104 0.56,0 0.92,-0.184 0.368,-0.184 0.584,-0.496 0.216,-0.31999 0.312,-0.73599 0.096,-0.424 0.112,-0.888 h -0.048 q -0.184,0.272 -0.512,0.472 -0.328,0.192 -0.848,0.192 -0.736,0 -1.192,-0.448 -0.448,-0.456 -0.448,-1.28 0,-0.6 0.224,-1.032 0.224,-0.432 0.632,-0.664 0.416,-0.232 0.968,-0.232 0.544,0 0.984,0.28 0.44,0.272 0.696,0.832 0.25599,0.552 0.25599,1.408 z m -1.93599,-1.928 q -0.496,0 -0.816,0.328 -0.312,0.328 -0.312,1 0,0.552 0.264,0.872 0.272,0.312 0.832,0.312 0.384,0 0.664,-0.152 0.28,-0.16 0.432,-0.4 0.16,-0.24 0.16,-0.496 0,-0.344 -0.136,-0.68 -0.136,-0.336 -0.408,-0.56 -0.272,-0.224 -0.68,-0.224 z"
         id="path9858"
         style="fill:none;stroke:#000000" />
      <path
         d="m 372.65029,339.54755 q 0,-0.296 0.144,-0.416 0.144,-0.12 0.344,-0.12 0.2,0 0.352,0.12 0.152,0.12 0.152,0.416 0,0.288 -0.152,0.416 -0.152,0.128 -0.352,0.128 -0.2,0 -0.344,-0.128 -0.144,-0.128 -0.144,-0.416 z"
         id="path9860"
         style="fill:none;stroke:#000000" />
      <path
         d="m 374.65828,337.53956 q 0,-0.616 0.104,-1.208 0.112,-0.6 0.392,-1.08 0.288,-0.488 0.8,-0.776 0.512,-0.288 1.32,-0.288 0.168,0 0.368,0.016 0.208,0.016 0.336,0.056 v 0.6 q -0.144,-0.048 -0.328,-0.072 -0.184,-0.024 -0.36,-0.024 -0.552,0 -0.92,0.184 -0.368,0.184 -0.584,0.504 -0.208,0.32 -0.304,0.736 -0.096,0.416 -0.12,0.888 h 0.048 q 0.184,-0.28 0.512,-0.472 0.328,-0.2 0.84,-0.2 0.744,0 1.2,0.456 0.456,0.448 0.456,1.28 0,0.89599 -0.496,1.40799 -0.488,0.512 -1.32,0.512 -0.544,0 -0.984,-0.272 -0.44,-0.272 -0.704,-0.832 -0.256,-0.55999 -0.256,-1.41599 z m 1.936,1.92799 q 0.504,0 0.816,-0.32 0.312,-0.328 0.312,-1.00799 0,-0.544 -0.28,-0.864 -0.272,-0.32 -0.824,-0.32 -0.376,0 -0.656,0.16 -0.28,0.152 -0.44,0.4 -0.152,0.24 -0.152,0.488 0,0.344 0.136,0.68799 0.136,0.336 0.408,0.56 0.272,0.216 0.68,0.216 z"
         id="path9862"
         style="fill:none;stroke:#000000" />
    </g>
    <g
       aria-label="9.5"
       id="text4721"
       style="font-size:7.99999px;line-height:1.25;text-align:end;letter-spacing:0px;word-spacing:0px;text-anchor:end;fill:none;stroke:#000000;stroke-width:0.264583"
       transform="translate(-376.06455,-87.781455)">
      <path
         d="m 372.90532,357.5958 q 0,0.616 -0.112,1.216 -0.104,0.592 -0.39199,1.08 -0.28,0.48 -0.8,0.768 -0.512,0.288 -1.32,0.288 -0.16,0 -0.376,-0.024 -0.216,-0.016 -0.344,-0.056 v -0.6 q 0.312,0.104 0.704,0.104 0.56,0 0.92,-0.184 0.368,-0.184 0.584,-0.496 0.216,-0.32 0.312,-0.736 0.096,-0.424 0.112,-0.888 h -0.048 q -0.184,0.272 -0.512,0.472 -0.328,0.192 -0.848,0.192 -0.736,0 -1.192,-0.448 -0.448,-0.456 -0.448,-1.28 0,-0.6 0.224,-1.032 0.224,-0.432 0.632,-0.664 0.416,-0.23199 0.968,-0.23199 0.544,0 0.984,0.27999 0.44,0.272 0.69599,0.832 0.256,0.552 0.256,1.408 z m -1.93599,-1.928 q -0.496,0 -0.816,0.328 -0.312,0.328 -0.312,1 0,0.552 0.264,0.872 0.272,0.312 0.832,0.312 0.384,0 0.664,-0.152 0.28,-0.16 0.432,-0.4 0.16,-0.24 0.16,-0.496 0,-0.344 -0.136,-0.68 -0.136,-0.336 -0.408,-0.56 -0.272,-0.224 -0.68,-0.224 z"
         id="path9833"
         style="fill:none;stroke:#000000" />
      <path
         d="m 373.89733,360.4358 q 0,-0.296 0.144,-0.416 0.144,-0.12 0.344,-0.12 0.2,0 0.352,0.12 0.152,0.12 0.152,0.416 0,0.288 -0.152,0.416 -0.152,0.128 -0.352,0.128 -0.2,0 -0.344,-0.128 -0.144,-0.128 -0.144,-0.416 z"
         id="path9835"
         style="fill:none;stroke:#000000" />
      <path
         d="m 377.66532,357.3638 q 0.872,0 1.392,0.44 0.528,0.44 0.528,1.24 0,0.888 -0.568,1.4 -0.56,0.504 -1.568,0.504 -0.448,0 -0.832,-0.08 -0.384,-0.08 -0.648,-0.232 v -0.664 q 0.288,0.176 0.696,0.28 0.416,0.096 0.792,0.096 0.632,0 1.016,-0.296 0.392,-0.304 0.392,-0.936 0,-0.56 -0.344,-0.856 -0.344,-0.304 -1.088,-0.304 -0.224,0 -0.512,0.04 -0.288,0.04 -0.464,0.08 l -0.352,-0.224 0.216,-2.69599 h 2.864 v 0.63999 h -2.264 l -0.136,1.656 q 0.136,-0.024 0.368,-0.056 0.232,-0.032 0.512,-0.032 z"
         id="path9837"
         style="fill:none;stroke:#000000" />
    </g>
    <g
       aria-label="9.4"
       id="text6397"
       style="font-size:7.99999px;line-height:1.25;text-align:end;letter-spacing:0px;word-spacing:0px;text-anchor:end;fill:none;stroke:#000000;stroke-width:0.264583"
       transform="translate(-378.40284,-88.249643)">
      <path
         d="m 375.24361,380.97816 q 0,0.616 -0.112,1.216 -0.104,0.59199 -0.392,1.07999 -0.28,0.48 -0.8,0.768 -0.512,0.288 -1.31999,0.288 -0.16,0 -0.376,-0.024 -0.216,-0.016 -0.344,-0.056 v -0.6 q 0.312,0.104 0.704,0.104 0.55999,0 0.91999,-0.184 0.368,-0.184 0.584,-0.496 0.216,-0.32 0.312,-0.736 0.096,-0.42399 0.112,-0.88799 h -0.048 q -0.184,0.272 -0.512,0.472 -0.328,0.192 -0.848,0.192 -0.73599,0 -1.19199,-0.448 -0.448,-0.456 -0.448,-1.28 0,-0.6 0.224,-1.032 0.224,-0.432 0.632,-0.664 0.41599,-0.232 0.96799,-0.232 0.544,0 0.984,0.28 0.44,0.272 0.696,0.832 0.256,0.552 0.256,1.408 z m -1.936,-1.928 q -0.496,0 -0.81599,0.328 -0.312,0.328 -0.312,1 0,0.552 0.264,0.872 0.272,0.312 0.83199,0.312 0.384,0 0.664,-0.152 0.28,-0.16 0.432,-0.4 0.16,-0.24 0.16,-0.496 0,-0.344 -0.136,-0.68 -0.136,-0.336 -0.408,-0.56 -0.272,-0.224 -0.68,-0.224 z"
         id="path9808"
         style="fill:none;stroke:#000000" />
      <path
         d="m 376.23561,383.81815 q 0,-0.296 0.144,-0.416 0.144,-0.12 0.344,-0.12 0.2,0 0.352,0.12 0.152,0.12 0.152,0.416 0,0.288 -0.152,0.416 -0.152,0.128 -0.352,0.128 -0.2,0 -0.344,-0.128 -0.144,-0.128 -0.144,-0.416 z"
         id="path9810"
         style="fill:none;stroke:#000000" />
      <path
         d="m 382.2196,382.95415 h -0.83199 v 1.296 h -0.68 v -1.296 h -2.736 v -0.6 l 2.688,-3.84799 h 0.728 v 3.816 h 0.83199 z m -1.51199,-0.63199 v -1.8 q 0,-0.416 0.008,-0.704 0.016,-0.296 0.032,-0.56 h -0.032 q -0.064,0.152 -0.16,0.328 -0.096,0.176 -0.184,0.296 l -1.712,2.44 z"
         id="path9812"
         style="fill:none;stroke:#000000" />
    </g>
    <g
       aria-label="9.3"
       id="text7229"
       style="font-size:7.99999px;line-height:1.25;text-align:end;letter-spacing:0px;word-spacing:0px;text-anchor:end;fill:none;stroke:#000000;stroke-width:0.264583"
       transform="translate(-377.77927,-86.223766)">
      <path
         d="m 374.62005,401.8664 q 0,0.616 -0.112,1.216 -0.104,0.592 -0.392,1.08 -0.28,0.48 -0.8,0.768 -0.512,0.288 -1.32,0.288 -0.16,0 -0.376,-0.024 -0.216,-0.016 -0.344,-0.056 v -0.6 q 0.312,0.104 0.704,0.104 0.56,0 0.92,-0.184 0.368,-0.184 0.584,-0.496 0.216,-0.32 0.312,-0.736 0.096,-0.424 0.112,-0.888 h -0.048 q -0.184,0.272 -0.512,0.472 -0.328,0.192 -0.848,0.192 -0.736,0 -1.192,-0.448 -0.448,-0.456 -0.448,-1.28 0,-0.6 0.224,-1.032 0.224,-0.432 0.632,-0.664 0.416,-0.232 0.968,-0.232 0.544,0 0.984,0.28 0.44,0.272 0.696,0.832 0.256,0.552 0.256,1.408 z m -1.936,-1.928 q -0.496,0 -0.816,0.328 -0.312,0.328 -0.312,1 0,0.552 0.264,0.872 0.272,0.312 0.832,0.312 0.384,0 0.664,-0.152 0.28,-0.16 0.432,-0.4 0.16,-0.24 0.16,-0.496 0,-0.344 -0.136,-0.68 -0.136,-0.336 -0.408,-0.56 -0.272,-0.224 -0.68,-0.224 z"
         id="path9783"
         style="fill:none;stroke:#000000" />
      <path
         d="m 375.61205,404.7064 q 0,-0.296 0.144,-0.416 0.144,-0.12 0.344,-0.12 0.2,0 0.352,0.12 0.152,0.12 0.152,0.416 0,0.288 -0.152,0.416 -0.152,0.128 -0.352,0.128 -0.2,0 -0.344,-0.128 -0.144,-0.128 -0.144,-0.416 z"
         id="path9785"
         style="fill:none;stroke:#000000" />
      <path
         d="m 381.12404,400.7624 q 0,0.576 -0.328,0.92 -0.32,0.336 -0.856,0.448 v 0.032 q 0.68,0.08 1.016,0.432 0.344,0.352 0.344,0.92 0,0.504 -0.232,0.888 -0.232,0.384 -0.72,0.6 -0.48,0.216 -1.24,0.216 -0.448,0 -0.832,-0.072 -0.384,-0.064 -0.736,-0.24 v -0.656 q 0.36,0.184 0.776,0.28 0.416,0.096 0.8,0.096 0.768,0 1.104,-0.296 0.344,-0.304 0.344,-0.832 0,-0.536 -0.424,-0.768 -0.416,-0.24 -1.176,-0.24 h -0.552 v -0.6 h 0.56 q 0.704,0 1.064,-0.296 0.368,-0.296 0.368,-0.784 0,-0.416 -0.28,-0.64 -0.28,-0.232 -0.76,-0.232 -0.464,0 -0.792,0.136 -0.328,0.136 -0.648,0.344 l -0.352,-0.48 q 0.304,-0.24 0.752,-0.416 0.456,-0.176 1.032,-0.176 0.896,0 1.328,0.4 0.44,0.4 0.44,1.016 z"
         id="path9787"
         style="fill:none;stroke:#000000" />
    </g>
    <g
       aria-label="9.2"
       id="text9329"
       style="font-size:7.99999px;line-height:1.25;text-align:end;letter-spacing:0px;word-spacing:0px;text-anchor:end;fill:none;stroke:#000000;stroke-width:0.264583"
       transform="translate(-377.77927,-93.309631)">
      <path
         d="m 374.62005,431.8664 q 0,0.616 -0.112,1.216 -0.104,0.592 -0.392,1.08 -0.28,0.48 -0.8,0.768 -0.512,0.288 -1.32,0.288 -0.16,0 -0.376,-0.024 -0.216,-0.016 -0.344,-0.056 v -0.6 q 0.312,0.104 0.704,0.104 0.56,0 0.92,-0.184 0.368,-0.184 0.584,-0.496 0.216,-0.32 0.312,-0.736 0.096,-0.424 0.112,-0.888 h -0.048 q -0.184,0.272 -0.512,0.472 -0.328,0.192 -0.848,0.192 -0.736,0 -1.192,-0.448 -0.448,-0.456 -0.448,-1.28 0,-0.6 0.224,-1.032 0.224,-0.432 0.632,-0.664 0.416,-0.232 0.968,-0.232 0.544,0 0.984,0.28 0.44,0.272 0.696,0.832 0.256,0.552 0.256,1.408 z m -1.936,-1.928 q -0.496,0 -0.816,0.328 -0.312,0.328 -0.312,1 0,0.552 0.264,0.872 0.272,0.312 0.832,0.312 0.384,0 0.664,-0.152 0.28,-0.16 0.432,-0.4 0.16,-0.24 0.16,-0.496 0,-0.344 -0.136,-0.68 -0.136,-0.336 -0.408,-0.56 -0.272,-0.224 -0.68,-0.224 z"
         id="path9758"
         style="fill:none;stroke:#000000" />
      <path
         d="m 375.61205,434.7064 q 0,-0.296 0.144,-0.416 0.144,-0.12 0.344,-0.12 0.2,0 0.352,0.12 0.152,0.12 0.152,0.416 0,0.288 -0.152,0.416 -0.152,0.128 -0.352,0.128 -0.2,0 -0.344,-0.128 -0.144,-0.128 -0.144,-0.416 z"
         id="path9760"
         style="fill:none;stroke:#000000" />
      <path
         d="m 381.34004,435.1384 h -3.776 v -0.584 l 1.496,-1.512 q 0.424,-0.432 0.72,-0.768 0.304,-0.336 0.456,-0.656 0.152,-0.32 0.152,-0.712 0,-0.472 -0.28,-0.712 -0.28,-0.248 -0.728,-0.248 -0.424,0 -0.736,0.144 -0.312,0.144 -0.64,0.4 l -0.376,-0.472 q 0.336,-0.28 0.768,-0.472 0.44,-0.2 0.984,-0.2 0.8,0 1.264,0.408 0.464,0.408 0.464,1.112 0,0.448 -0.184,0.84 -0.184,0.392 -0.512,0.776 -0.328,0.384 -0.768,0.808 l -1.192,1.176 v 0.032 h 2.888 z"
         id="path9762"
         style="fill:none;stroke:#000000" />
    </g>
  </g>
</svg>
